<svg width="266" height="22" viewBox="0 0 266 22" fill="none" xmlns="http://www.w3.org/2000/svg">
<path d="M16 11C16 13.1217 15.1571 15.1566 13.6569 16.6569C12.1566 18.1571 10.1217 19 8 19C5.87827 19 3.84344 18.1571 2.34315 16.6569C0.842855 15.1566 0 13.1217 0 11C0 8.87827 0.842855 6.84344 2.34315 5.34315C3.84344 3.84285 5.87827 3 8 3C10.1217 3 12.1566 3.84285 13.6569 5.34315C15.1571 6.84344 16 8.87827 16 11ZM8 7C7.87361 7.00007 7.74863 7.02662 7.63312 7.07793C7.51761 7.12924 7.41413 7.20418 7.32934 7.29791C7.24456 7.39165 7.18035 7.5021 7.14084 7.62217C7.10134 7.74223 7.08743 7.86923 7.1 7.995L7.45 11.502C7.46176 11.6398 7.5248 11.7681 7.62664 11.8616C7.72849 11.9552 7.86173 12.007 8 12.007C8.13827 12.007 8.27151 11.9552 8.37336 11.8616C8.4752 11.7681 8.53824 11.6398 8.55 11.502L8.9 7.995C8.91257 7.86923 8.89866 7.74223 8.85915 7.62217C8.81965 7.5021 8.75544 7.39165 8.67066 7.29791C8.58587 7.20418 8.48239 7.12924 8.36688 7.07793C8.25137 7.02662 8.12639 7.00007 8 7ZM8.002 13C7.73678 13 7.48243 13.1054 7.29489 13.2929C7.10736 13.4804 7.002 13.7348 7.002 14C7.002 14.2652 7.10736 14.5196 7.29489 14.7071C7.48243 14.8946 7.73678 15 8.002 15C8.26722 15 8.52157 14.8946 8.70911 14.7071C8.89664 14.5196 9.002 14.2652 9.002 14C9.002 13.7348 8.89664 13.4804 8.70911 13.2929C8.52157 13.1054 8.26722 13 8.002 13Z" fill="#495057" fill-opacity="0.65"/>
<path d="M28.9629 15.117C28.4169 15.117 27.9273 15.026 27.4939 14.844C27.0606 14.6533 26.7183 14.3933 26.4669 14.064C26.2156 13.726 26.0769 13.3403 26.0509 12.907H27.2729C27.3076 13.2623 27.4723 13.5527 27.7669 13.778C28.0703 14.0033 28.4646 14.116 28.9499 14.116C29.4006 14.116 29.7559 14.0163 30.0159 13.817C30.2759 13.6177 30.4059 13.3663 30.4059 13.063C30.4059 12.751 30.2673 12.5213 29.9899 12.374C29.7126 12.218 29.2836 12.0663 28.7029 11.919C28.1743 11.7803 27.7409 11.6417 27.4029 11.503C27.0736 11.3557 26.7876 11.1433 26.5449 10.866C26.3109 10.58 26.1939 10.2073 26.1939 9.748C26.1939 9.384 26.3023 9.05033 26.5189 8.747C26.7356 8.44367 27.0433 8.20533 27.4419 8.032C27.8406 7.85 28.2956 7.759 28.8069 7.759C29.5956 7.759 30.2326 7.95833 30.7179 8.357C31.2033 8.75567 31.4633 9.30167 31.4979 9.995H30.3149C30.2889 9.62233 30.1373 9.32333 29.8599 9.098C29.5913 8.87267 29.2273 8.76 28.7679 8.76C28.3433 8.76 28.0053 8.851 27.7539 9.033C27.5026 9.215 27.3769 9.45333 27.3769 9.748C27.3769 9.982 27.4506 10.177 27.5979 10.333C27.7539 10.4803 27.9446 10.6017 28.1699 10.697C28.4039 10.7837 28.7246 10.8833 29.1319 10.996C29.6433 11.1347 30.0593 11.2733 30.3799 11.412C30.7006 11.542 30.9736 11.7413 31.1989 12.01C31.4329 12.2787 31.5543 12.6297 31.5629 13.063C31.5629 13.453 31.4546 13.804 31.2379 14.116C31.0213 14.428 30.7136 14.675 30.3149 14.857C29.9249 15.0303 29.4743 15.117 28.9629 15.117ZM36.3399 15.117C35.6726 15.117 35.0659 14.9653 34.5199 14.662C33.9826 14.3587 33.5579 13.9297 33.2459 13.375C32.9426 12.8117 32.7909 12.1617 32.7909 11.425C32.7909 10.697 32.9469 10.0557 33.2589 9.501C33.5796 8.93767 34.0129 8.50867 34.5589 8.214C35.1049 7.91067 35.7159 7.759 36.3919 7.759C37.0679 7.759 37.6789 7.91067 38.2249 8.214C38.7709 8.50867 39.1999 8.93333 39.5119 9.488C39.8326 10.0427 39.9929 10.6883 39.9929 11.425C39.9929 12.1617 39.8283 12.8117 39.4989 13.375C39.1783 13.9297 38.7406 14.3587 38.1859 14.662C37.6313 14.9653 37.0159 15.117 36.3399 15.117ZM36.3399 14.077C36.7646 14.077 37.1633 13.9773 37.5359 13.778C37.9086 13.5787 38.2076 13.2797 38.4329 12.881C38.6669 12.4823 38.7839 11.997 38.7839 11.425C38.7839 10.853 38.6713 10.3677 38.4459 9.969C38.2206 9.57033 37.9259 9.27567 37.5619 9.085C37.1979 8.88567 36.8036 8.786 36.3789 8.786C35.9456 8.786 35.5469 8.88567 35.1829 9.085C34.8276 9.27567 34.5416 9.57033 34.3249 9.969C34.1083 10.3677 33.9999 10.853 33.9999 11.425C33.9999 12.0057 34.1039 12.4953 34.3119 12.894C34.5286 13.2927 34.8146 13.5917 35.1699 13.791C35.5253 13.9817 35.9153 14.077 36.3399 14.077ZM42.7314 5.38V15H41.5484V5.38H42.7314ZM47.8546 15.117C47.1872 15.117 46.5806 14.9653 46.0346 14.662C45.4972 14.3587 45.0726 13.9297 44.7606 13.375C44.4572 12.8117 44.3056 12.1617 44.3056 11.425C44.3056 10.697 44.4616 10.0557 44.7736 9.501C45.0942 8.93767 45.5276 8.50867 46.0736 8.214C46.6196 7.91067 47.2306 7.759 47.9066 7.759C48.5826 7.759 49.1936 7.91067 49.7396 8.214C50.2856 8.50867 50.7146 8.93333 51.0266 9.488C51.3472 10.0427 51.5076 10.6883 51.5076 11.425C51.5076 12.1617 51.3429 12.8117 51.0136 13.375C50.6929 13.9297 50.2552 14.3587 49.7006 14.662C49.1459 14.9653 48.5306 15.117 47.8546 15.117ZM47.8546 14.077C48.2792 14.077 48.6779 13.9773 49.0506 13.778C49.4232 13.5787 49.7222 13.2797 49.9476 12.881C50.1816 12.4823 50.2986 11.997 50.2986 11.425C50.2986 10.853 50.1859 10.3677 49.9606 9.969C49.7352 9.57033 49.4406 9.27567 49.0766 9.085C48.7126 8.88567 48.3182 8.786 47.8936 8.786C47.4602 8.786 47.0616 8.88567 46.6976 9.085C46.3422 9.27567 46.0562 9.57033 45.8396 9.969C45.6229 10.3677 45.5146 10.853 45.5146 11.425C45.5146 12.0057 45.6186 12.4953 45.8266 12.894C46.0432 13.2927 46.3292 13.5917 46.6846 13.791C47.0399 13.9817 47.4299 14.077 47.8546 14.077ZM57.7118 5.38V15H56.5288V5.38H57.7118ZM66.2281 11.165C66.2281 11.3903 66.2151 11.6287 66.1891 11.88H60.4951C60.5384 12.582 60.7767 13.1323 61.2101 13.531C61.6521 13.921 62.1851 14.116 62.8091 14.116C63.3204 14.116 63.7451 13.999 64.0831 13.765C64.4297 13.5223 64.6724 13.2017 64.8111 12.803H66.0851C65.8944 13.4877 65.5131 14.0467 64.9411 14.48C64.3691 14.9047 63.6584 15.117 62.8091 15.117C62.1331 15.117 61.5264 14.9653 60.9891 14.662C60.4604 14.3587 60.0444 13.9297 59.7411 13.375C59.4377 12.8117 59.2861 12.1617 59.2861 11.425C59.2861 10.6883 59.4334 10.0427 59.7281 9.488C60.0227 8.93333 60.4344 8.50867 60.9631 8.214C61.5004 7.91067 62.1157 7.759 62.8091 7.759C63.4851 7.759 64.0831 7.90633 64.6031 8.201C65.1231 8.49567 65.5217 8.903 65.7991 9.423C66.0851 9.93433 66.2281 10.515 66.2281 11.165ZM65.0061 10.918C65.0061 10.4673 64.9064 10.0817 64.7071 9.761C64.5077 9.43167 64.2347 9.18467 63.8881 9.02C63.5501 8.84667 63.1731 8.76 62.7571 8.76C62.1591 8.76 61.6477 8.95067 61.2231 9.332C60.8071 9.71333 60.5687 10.242 60.5081 10.918H65.0061ZM69.2326 8.851V13.05C69.2326 13.3967 69.3062 13.6437 69.4536 13.791C69.6009 13.9297 69.8566 13.999 70.2206 13.999H71.0916V15H70.0256C69.3669 15 68.8729 14.8483 68.5436 14.545C68.2142 14.2417 68.0496 13.7433 68.0496 13.05V8.851H67.1266V7.876H68.0496V6.082H69.2326V7.876H71.0916V8.851H69.2326ZM73.7079 9.033C73.9159 8.62567 74.2106 8.30933 74.5919 8.084C74.9819 7.85867 75.4543 7.746 76.0089 7.746V8.968H75.6969C74.3709 8.968 73.7079 9.68733 73.7079 11.126V15H72.5249V7.876H73.7079V9.033ZM76.9325 11.412C76.9325 10.684 77.0799 10.047 77.3745 9.501C77.6692 8.94633 78.0722 8.51733 78.5835 8.214C79.1035 7.91067 79.6799 7.759 80.3125 7.759C80.9365 7.759 81.4782 7.89333 81.9375 8.162C82.3969 8.43067 82.7392 8.76867 82.9645 9.176V7.876H84.1605V15H82.9645V13.674C82.7305 14.09 82.3795 14.4367 81.9115 14.714C81.4522 14.9827 80.9149 15.117 80.2995 15.117C79.6669 15.117 79.0949 14.961 78.5835 14.649C78.0722 14.337 77.6692 13.8993 77.3745 13.336C77.0799 12.7727 76.9325 12.1313 76.9325 11.412ZM82.9645 11.425C82.9645 10.8877 82.8562 10.4197 82.6395 10.021C82.4229 9.62233 82.1282 9.319 81.7555 9.111C81.3915 8.89433 80.9885 8.786 80.5465 8.786C80.1045 8.786 79.7015 8.89 79.3375 9.098C78.9735 9.306 78.6832 9.60933 78.4665 10.008C78.2499 10.4067 78.1415 10.8747 78.1415 11.412C78.1415 11.958 78.2499 12.4347 78.4665 12.842C78.6832 13.2407 78.9735 13.5483 79.3375 13.765C79.7015 13.973 80.1045 14.077 80.5465 14.077C80.9885 14.077 81.3915 13.973 81.7555 13.765C82.1282 13.5483 82.4229 13.2407 82.6395 12.842C82.8562 12.4347 82.9645 11.9623 82.9645 11.425ZM88.6817 15.117C88.1357 15.117 87.646 15.026 87.2127 14.844C86.7794 14.6533 86.437 14.3933 86.1857 14.064C85.9344 13.726 85.7957 13.3403 85.7697 12.907H86.9917C87.0264 13.2623 87.191 13.5527 87.4857 13.778C87.789 14.0033 88.1834 14.116 88.6687 14.116C89.1194 14.116 89.4747 14.0163 89.7347 13.817C89.9947 13.6177 90.1247 13.3663 90.1247 13.063C90.1247 12.751 89.986 12.5213 89.7087 12.374C89.4314 12.218 89.0024 12.0663 88.4217 11.919C87.893 11.7803 87.4597 11.6417 87.1217 11.503C86.7924 11.3557 86.5064 11.1433 86.2637 10.866C86.0297 10.58 85.9127 10.2073 85.9127 9.748C85.9127 9.384 86.021 9.05033 86.2377 8.747C86.4544 8.44367 86.762 8.20533 87.1607 8.032C87.5594 7.85 88.0144 7.759 88.5257 7.759C89.3144 7.759 89.9514 7.95833 90.4367 8.357C90.922 8.75567 91.182 9.30167 91.2167 9.995H90.0337C90.0077 9.62233 89.856 9.32333 89.5787 9.098C89.31 8.87267 88.946 8.76 88.4867 8.76C88.062 8.76 87.724 8.851 87.4727 9.033C87.2214 9.215 87.0957 9.45333 87.0957 9.748C87.0957 9.982 87.1694 10.177 87.3167 10.333C87.4727 10.4803 87.6634 10.6017 87.8887 10.697C88.1227 10.7837 88.4434 10.8833 88.8507 10.996C89.362 11.1347 89.778 11.2733 90.0987 11.412C90.4194 11.542 90.6924 11.7413 90.9177 12.01C91.1517 12.2787 91.273 12.6297 91.2817 13.063C91.2817 13.453 91.1734 13.804 90.9567 14.116C90.74 14.428 90.4324 14.675 90.0337 14.857C89.6437 15.0303 89.193 15.117 88.6817 15.117ZM104.985 7.746C105.539 7.746 106.033 7.863 106.467 8.097C106.9 8.32233 107.242 8.66467 107.494 9.124C107.745 9.58333 107.871 10.1423 107.871 10.801V15H106.701V10.97C106.701 10.2593 106.523 9.71767 106.168 9.345C105.821 8.96367 105.349 8.773 104.751 8.773C104.135 8.773 103.646 8.97233 103.282 9.371C102.918 9.761 102.736 10.3287 102.736 11.074V15H101.566V10.97C101.566 10.2593 101.388 9.71767 101.033 9.345C100.686 8.96367 100.214 8.773 99.6155 8.773C99.0002 8.773 98.5105 8.97233 98.1465 9.371C97.7825 9.761 97.6005 10.3287 97.6005 11.074V15H96.4175V7.876H97.6005V8.903C97.8345 8.53033 98.1465 8.24433 98.5365 8.045C98.9352 7.84567 99.3728 7.746 99.8495 7.746C100.448 7.746 100.976 7.88033 101.436 8.149C101.895 8.41767 102.237 8.812 102.463 9.332C102.662 8.82933 102.991 8.43933 103.451 8.162C103.91 7.88467 104.421 7.746 104.985 7.746ZM110.422 6.719C110.197 6.719 110.006 6.641 109.85 6.485C109.694 6.329 109.616 6.13833 109.616 5.913C109.616 5.68767 109.694 5.497 109.85 5.341C110.006 5.185 110.197 5.107 110.422 5.107C110.639 5.107 110.821 5.185 110.968 5.341C111.124 5.497 111.202 5.68767 111.202 5.913C111.202 6.13833 111.124 6.329 110.968 6.485C110.821 6.641 110.639 6.719 110.422 6.719ZM110.994 7.876V15H109.811V7.876H110.994ZM116.481 7.746C117.348 7.746 118.05 8.01033 118.587 8.539C119.125 9.059 119.393 9.813 119.393 10.801V15H118.223V10.97C118.223 10.2593 118.046 9.71767 117.69 9.345C117.335 8.96367 116.85 8.773 116.234 8.773C115.61 8.773 115.112 8.968 114.739 9.358C114.375 9.748 114.193 10.3157 114.193 11.061V15H113.01V7.876H114.193V8.89C114.427 8.526 114.744 8.24433 115.142 8.045C115.55 7.84567 115.996 7.746 116.481 7.746ZM127.644 7.876V15H126.461V13.947C126.235 14.311 125.919 14.597 125.512 14.805C125.113 15.0043 124.671 15.104 124.186 15.104C123.631 15.104 123.133 14.9913 122.691 14.766C122.249 14.532 121.898 14.1853 121.638 13.726C121.386 13.2667 121.261 12.7077 121.261 12.049V7.876H122.431V11.893C122.431 12.595 122.608 13.1367 122.964 13.518C123.319 13.8907 123.804 14.077 124.42 14.077C125.052 14.077 125.551 13.882 125.915 13.492C126.279 13.102 126.461 12.5343 126.461 11.789V7.876H127.644ZM125.759 5.861L122.99 7.343V6.459L125.759 4.834V5.861ZM132.163 15.117C131.617 15.117 131.127 15.026 130.694 14.844C130.261 14.6533 129.918 14.3933 129.667 14.064C129.416 13.726 129.277 13.3403 129.251 12.907H130.473C130.508 13.2623 130.672 13.5527 130.967 13.778C131.27 14.0033 131.665 14.116 132.15 14.116C132.601 14.116 132.956 14.0163 133.216 13.817C133.476 13.6177 133.606 13.3663 133.606 13.063C133.606 12.751 133.467 12.5213 133.19 12.374C132.913 12.218 132.484 12.0663 131.903 11.919C131.374 11.7803 130.941 11.6417 130.603 11.503C130.274 11.3557 129.988 11.1433 129.745 10.866C129.511 10.58 129.394 10.2073 129.394 9.748C129.394 9.384 129.502 9.05033 129.719 8.747C129.936 8.44367 130.243 8.20533 130.642 8.032C131.041 7.85 131.496 7.759 132.007 7.759C132.796 7.759 133.433 7.95833 133.918 8.357C134.403 8.75567 134.663 9.30167 134.698 9.995H133.515C133.489 9.62233 133.337 9.32333 133.06 9.098C132.791 8.87267 132.427 8.76 131.968 8.76C131.543 8.76 131.205 8.851 130.954 9.033C130.703 9.215 130.577 9.45333 130.577 9.748C130.577 9.982 130.651 10.177 130.798 10.333C130.954 10.4803 131.145 10.6017 131.37 10.697C131.604 10.7837 131.925 10.8833 132.332 10.996C132.843 11.1347 133.259 11.2733 133.58 11.412C133.901 11.542 134.174 11.7413 134.399 12.01C134.633 12.2787 134.754 12.6297 134.763 13.063C134.763 13.453 134.655 13.804 134.438 14.116C134.221 14.428 133.914 14.675 133.515 14.857C133.125 15.0303 132.674 15.117 132.163 15.117ZM135.991 11.425C135.991 10.6883 136.138 10.047 136.433 9.501C136.728 8.94633 137.135 8.51733 137.655 8.214C138.184 7.91067 138.786 7.759 139.462 7.759C140.337 7.759 141.057 7.97133 141.62 8.396C142.192 8.82067 142.569 9.41 142.751 10.164H141.477C141.356 9.73067 141.117 9.38833 140.762 9.137C140.415 8.88567 139.982 8.76 139.462 8.76C138.786 8.76 138.24 8.994 137.824 9.462C137.408 9.92133 137.2 10.5757 137.2 11.425C137.2 12.283 137.408 12.946 137.824 13.414C138.24 13.882 138.786 14.116 139.462 14.116C139.982 14.116 140.415 13.9947 140.762 13.752C141.109 13.5093 141.347 13.1627 141.477 12.712H142.751C142.56 13.44 142.179 14.025 141.607 14.467C141.035 14.9003 140.32 15.117 139.462 15.117C138.786 15.117 138.184 14.9653 137.655 14.662C137.135 14.3587 136.728 13.9297 136.433 13.375C136.138 12.8203 135.991 12.1703 135.991 11.425ZM150.648 7.876V15H149.465V13.947C149.239 14.311 148.923 14.597 148.516 14.805C148.117 15.0043 147.675 15.104 147.19 15.104C146.635 15.104 146.137 14.9913 145.695 14.766C145.253 14.532 144.902 14.1853 144.642 13.726C144.39 13.2667 144.265 12.7077 144.265 12.049V7.876H145.435V11.893C145.435 12.595 145.612 13.1367 145.968 13.518C146.323 13.8907 146.808 14.077 147.424 14.077C148.056 14.077 148.555 13.882 148.919 13.492C149.283 13.102 149.465 12.5343 149.465 11.789V7.876H150.648ZM153.828 5.38V15H152.645V5.38H153.828ZM155.402 11.412C155.402 10.684 155.55 10.047 155.844 9.501C156.139 8.94633 156.542 8.51733 157.053 8.214C157.573 7.91067 158.15 7.759 158.782 7.759C159.406 7.759 159.948 7.89333 160.407 8.162C160.867 8.43067 161.209 8.76867 161.434 9.176V7.876H162.63V15H161.434V13.674C161.2 14.09 160.849 14.4367 160.381 14.714C159.922 14.9827 159.385 15.117 158.769 15.117C158.137 15.117 157.565 14.961 157.053 14.649C156.542 14.337 156.139 13.8993 155.844 13.336C155.55 12.7727 155.402 12.1313 155.402 11.412ZM161.434 11.425C161.434 10.8877 161.326 10.4197 161.109 10.021C160.893 9.62233 160.598 9.319 160.225 9.111C159.861 8.89433 159.458 8.786 159.016 8.786C158.574 8.786 158.171 8.89 157.807 9.098C157.443 9.306 157.153 9.60933 156.936 10.008C156.72 10.4067 156.611 10.8747 156.611 11.412C156.611 11.958 156.72 12.4347 156.936 12.842C157.153 13.2407 157.443 13.5483 157.807 13.765C158.171 13.973 158.574 14.077 159.016 14.077C159.458 14.077 159.861 13.973 160.225 13.765C160.598 13.5483 160.893 13.2407 161.109 12.842C161.326 12.4347 161.434 11.9623 161.434 11.425ZM167.151 15.117C166.605 15.117 166.116 15.026 165.682 14.844C165.249 14.6533 164.907 14.3933 164.655 14.064C164.404 13.726 164.265 13.3403 164.239 12.907H165.461C165.496 13.2623 165.661 13.5527 165.955 13.778C166.259 14.0033 166.653 14.116 167.138 14.116C167.589 14.116 167.944 14.0163 168.204 13.817C168.464 13.6177 168.594 13.3663 168.594 13.063C168.594 12.751 168.456 12.5213 168.178 12.374C167.901 12.218 167.472 12.0663 166.891 11.919C166.363 11.7803 165.929 11.6417 165.591 11.503C165.262 11.3557 164.976 11.1433 164.733 10.866C164.499 10.58 164.382 10.2073 164.382 9.748C164.382 9.384 164.491 9.05033 164.707 8.747C164.924 8.44367 165.232 8.20533 165.63 8.032C166.029 7.85 166.484 7.759 166.995 7.759C167.784 7.759 168.421 7.95833 168.906 8.357C169.392 8.75567 169.652 9.30167 169.686 9.995H168.503C168.477 9.62233 168.326 9.32333 168.048 9.098C167.78 8.87267 167.416 8.76 166.956 8.76C166.532 8.76 166.194 8.851 165.942 9.033C165.691 9.215 165.565 9.45333 165.565 9.748C165.565 9.982 165.639 10.177 165.786 10.333C165.942 10.4803 166.133 10.6017 166.358 10.697C166.592 10.7837 166.913 10.8833 167.32 10.996C167.832 11.1347 168.248 11.2733 168.568 11.412C168.889 11.542 169.162 11.7413 169.387 12.01C169.621 12.2787 169.743 12.6297 169.751 13.063C169.751 13.453 169.643 13.804 169.426 14.116C169.21 14.428 168.902 14.675 168.503 14.857C168.113 15.0303 167.663 15.117 167.151 15.117ZM177.409 15.117C176.863 15.117 176.374 15.026 175.94 14.844C175.507 14.6533 175.165 14.3933 174.913 14.064C174.662 13.726 174.523 13.3403 174.497 12.907H175.719C175.754 13.2623 175.919 13.5527 176.213 13.778C176.517 14.0033 176.911 14.116 177.396 14.116C177.847 14.116 178.202 14.0163 178.462 13.817C178.722 13.6177 178.852 13.3663 178.852 13.063C178.852 12.751 178.714 12.5213 178.436 12.374C178.159 12.218 177.73 12.0663 177.149 11.919C176.621 11.7803 176.187 11.6417 175.849 11.503C175.52 11.3557 175.234 11.1433 174.991 10.866C174.757 10.58 174.64 10.2073 174.64 9.748C174.64 9.384 174.749 9.05033 174.965 8.747C175.182 8.44367 175.49 8.20533 175.888 8.032C176.287 7.85 176.742 7.759 177.253 7.759C178.042 7.759 178.679 7.95833 179.164 8.357C179.65 8.75567 179.91 9.30167 179.944 9.995H178.761C178.735 9.62233 178.584 9.32333 178.306 9.098C178.038 8.87267 177.674 8.76 177.214 8.76C176.79 8.76 176.452 8.851 176.2 9.033C175.949 9.215 175.823 9.45333 175.823 9.748C175.823 9.982 175.897 10.177 176.044 10.333C176.2 10.4803 176.391 10.6017 176.616 10.697C176.85 10.7837 177.171 10.8833 177.578 10.996C178.09 11.1347 178.506 11.2733 178.826 11.412C179.147 11.542 179.42 11.7413 179.645 12.01C179.879 12.2787 180.001 12.6297 180.009 13.063C180.009 13.453 179.901 13.804 179.684 14.116C179.468 14.428 179.16 14.675 178.761 14.857C178.371 15.0303 177.921 15.117 177.409 15.117ZM182.29 6.719C182.065 6.719 181.874 6.641 181.718 6.485C181.562 6.329 181.484 6.13833 181.484 5.913C181.484 5.68767 181.562 5.497 181.718 5.341C181.874 5.185 182.065 5.107 182.29 5.107C182.507 5.107 182.689 5.185 182.836 5.341C182.992 5.497 183.07 5.68767 183.07 5.913C183.07 6.13833 182.992 6.329 182.836 6.485C182.689 6.641 182.507 6.719 182.29 6.719ZM182.862 7.876V15H181.679V7.876H182.862ZM188.349 7.746C189.216 7.746 189.918 8.01033 190.455 8.539C190.993 9.059 191.261 9.813 191.261 10.801V15H190.091V10.97C190.091 10.2593 189.914 9.71767 189.558 9.345C189.203 8.96367 188.718 8.773 188.102 8.773C187.478 8.773 186.98 8.968 186.607 9.358C186.243 9.748 186.061 10.3157 186.061 11.061V15H184.878V7.876H186.061V8.89C186.295 8.526 186.612 8.24433 187.01 8.045C187.418 7.84567 187.864 7.746 188.349 7.746ZM196.218 11.412C196.218 10.684 196.365 10.047 196.66 9.501C196.954 8.94633 197.357 8.51733 197.869 8.214C198.389 7.91067 198.965 7.759 199.598 7.759C200.222 7.759 200.763 7.89333 201.223 8.162C201.682 8.43067 202.024 8.76867 202.25 9.176V7.876H203.446V15H202.25V13.674C202.016 14.09 201.665 14.4367 201.197 14.714C200.737 14.9827 200.2 15.117 199.585 15.117C198.952 15.117 198.38 14.961 197.869 14.649C197.357 14.337 196.954 13.8993 196.66 13.336C196.365 12.7727 196.218 12.1313 196.218 11.412ZM202.25 11.425C202.25 10.8877 202.141 10.4197 201.925 10.021C201.708 9.62233 201.413 9.319 201.041 9.111C200.677 8.89433 200.274 8.786 199.832 8.786C199.39 8.786 198.987 8.89 198.623 9.098C198.259 9.306 197.968 9.60933 197.752 10.008C197.535 10.4067 197.427 10.8747 197.427 11.412C197.427 11.958 197.535 12.4347 197.752 12.842C197.968 13.2407 198.259 13.5483 198.623 13.765C198.987 13.973 199.39 14.077 199.832 14.077C200.274 14.077 200.677 13.973 201.041 13.765C201.413 13.5483 201.708 13.2407 201.925 12.842C202.141 12.4347 202.25 11.9623 202.25 11.425ZM205.003 11.425C205.003 10.6883 205.15 10.047 205.445 9.501C205.74 8.94633 206.147 8.51733 206.667 8.214C207.196 7.91067 207.798 7.759 208.474 7.759C209.349 7.759 210.069 7.97133 210.632 8.396C211.204 8.82067 211.581 9.41 211.763 10.164H210.489C210.368 9.73067 210.129 9.38833 209.774 9.137C209.427 8.88567 208.994 8.76 208.474 8.76C207.798 8.76 207.252 8.994 206.836 9.462C206.42 9.92133 206.212 10.5757 206.212 11.425C206.212 12.283 206.42 12.946 206.836 13.414C207.252 13.882 207.798 14.116 208.474 14.116C208.994 14.116 209.427 13.9947 209.774 13.752C210.121 13.5093 210.359 13.1627 210.489 12.712H211.763C211.572 13.44 211.191 14.025 210.619 14.467C210.047 14.9003 209.332 15.117 208.474 15.117C207.798 15.117 207.196 14.9653 206.667 14.662C206.147 14.3587 205.74 13.9297 205.445 13.375C205.15 12.8203 205.003 12.1703 205.003 11.425ZM219.841 11.165C219.841 11.3903 219.828 11.6287 219.802 11.88H214.108C214.152 12.582 214.39 13.1323 214.823 13.531C215.265 13.921 215.798 14.116 216.422 14.116C216.934 14.116 217.358 13.999 217.696 13.765C218.043 13.5223 218.286 13.2017 218.424 12.803H219.698C219.508 13.4877 219.126 14.0467 218.554 14.48C217.982 14.9047 217.272 15.117 216.422 15.117C215.746 15.117 215.14 14.9653 214.602 14.662C214.074 14.3587 213.658 13.9297 213.354 13.375C213.051 12.8117 212.899 12.1617 212.899 11.425C212.899 10.6883 213.047 10.0427 213.341 9.488C213.636 8.93333 214.048 8.50867 214.576 8.214C215.114 7.91067 215.729 7.759 216.422 7.759C217.098 7.759 217.696 7.90633 218.216 8.201C218.736 8.49567 219.135 8.903 219.412 9.423C219.698 9.93433 219.841 10.515 219.841 11.165ZM218.619 10.918C218.619 10.4673 218.52 10.0817 218.32 9.761C218.121 9.43167 217.848 9.18467 217.501 9.02C217.163 8.84667 216.786 8.76 216.37 8.76C215.772 8.76 215.261 8.95067 214.836 9.332C214.42 9.71333 214.182 10.242 214.121 10.918H218.619ZM224.874 7.746C225.741 7.746 226.443 8.01033 226.98 8.539C227.517 9.059 227.786 9.813 227.786 10.801V15H226.616V10.97C226.616 10.2593 226.438 9.71767 226.083 9.345C225.728 8.96367 225.242 8.773 224.627 8.773C224.003 8.773 223.505 8.968 223.132 9.358C222.768 9.748 222.586 10.3157 222.586 11.061V15H221.403V7.876H222.586V8.89C222.82 8.526 223.136 8.24433 223.535 8.045C223.942 7.84567 224.389 7.746 224.874 7.746ZM231.161 8.851V13.05C231.161 13.3967 231.235 13.6437 231.382 13.791C231.53 13.9297 231.785 13.999 232.149 13.999H233.02V15H231.954C231.296 15 230.802 14.8483 230.472 14.545C230.143 14.2417 229.978 13.7433 229.978 13.05V8.851H229.055V7.876H229.978V6.082H231.161V7.876H233.02V8.851H231.161ZM237.561 15.117C236.893 15.117 236.287 14.9653 235.741 14.662C235.203 14.3587 234.779 13.9297 234.467 13.375C234.163 12.8117 234.012 12.1617 234.012 11.425C234.012 10.697 234.168 10.0557 234.48 9.501C234.8 8.93767 235.234 8.50867 235.78 8.214C236.326 7.91067 236.937 7.759 237.613 7.759C238.289 7.759 238.9 7.91067 239.446 8.214C239.992 8.50867 240.421 8.93333 240.733 9.488C241.053 10.0427 241.214 10.6883 241.214 11.425C241.214 12.1617 241.049 12.8117 240.72 13.375C240.399 13.9297 239.961 14.3587 239.407 14.662C238.852 14.9653 238.237 15.117 237.561 15.117ZM237.561 14.077C237.985 14.077 238.384 13.9773 238.757 13.778C239.129 13.5787 239.428 13.2797 239.654 12.881C239.888 12.4823 240.005 11.997 240.005 11.425C240.005 10.853 239.892 10.3677 239.667 9.969C239.441 9.57033 239.147 9.27567 238.783 9.085C238.419 8.88567 238.024 8.786 237.6 8.786C237.166 8.786 236.768 8.88567 236.404 9.085C236.048 9.27567 235.762 9.57033 235.546 9.969C235.329 10.3677 235.221 10.853 235.221 11.425C235.221 12.0057 235.325 12.4953 235.533 12.894C235.749 13.2927 236.035 13.5917 236.391 13.791C236.746 13.9817 237.136 14.077 237.561 14.077ZM245.291 15.117C244.745 15.117 244.255 15.026 243.822 14.844C243.389 14.6533 243.046 14.3933 242.795 14.064C242.544 13.726 242.405 13.3403 242.379 12.907H243.601C243.636 13.2623 243.8 13.5527 244.095 13.778C244.398 14.0033 244.793 14.116 245.278 14.116C245.729 14.116 246.084 14.0163 246.344 13.817C246.604 13.6177 246.734 13.3663 246.734 13.063C246.734 12.751 246.595 12.5213 246.318 12.374C246.041 12.218 245.612 12.0663 245.031 11.919C244.502 11.7803 244.069 11.6417 243.731 11.503C243.402 11.3557 243.116 11.1433 242.873 10.866C242.639 10.58 242.522 10.2073 242.522 9.748C242.522 9.384 242.63 9.05033 242.847 8.747C243.064 8.44367 243.371 8.20533 243.77 8.032C244.169 7.85 244.624 7.759 245.135 7.759C245.924 7.759 246.561 7.95833 247.046 8.357C247.531 8.75567 247.791 9.30167 247.826 9.995H246.643C246.617 9.62233 246.465 9.32333 246.188 9.098C245.919 8.87267 245.555 8.76 245.096 8.76C244.671 8.76 244.333 8.851 244.082 9.033C243.831 9.215 243.705 9.45333 243.705 9.748C243.705 9.982 243.779 10.177 243.926 10.333C244.082 10.4803 244.273 10.6017 244.498 10.697C244.732 10.7837 245.053 10.8833 245.46 10.996C245.971 11.1347 246.387 11.2733 246.708 11.412C247.029 11.542 247.302 11.7413 247.527 12.01C247.761 12.2787 247.882 12.6297 247.891 13.063C247.891 13.453 247.783 13.804 247.566 14.116C247.349 14.428 247.042 14.675 246.643 14.857C246.253 15.0303 245.802 15.117 245.291 15.117Z" fill="#595959" fill-opacity="0.6"/>
</svg>
