<svg width="387" height="376" viewBox="0 0 387 376" fill="none" xmlns="http://www.w3.org/2000/svg">
<path d="M88.9668 284C89.0059 283.779 89.0254 283.538 89.0254 283.277V271.012H90.9785L96.1543 279.156V271.676C96.1543 271.318 96.1217 271.096 96.0566 271.012H98.6934C98.6608 271.272 98.6445 271.559 98.6445 271.871V284H96.6133L91.5156 276.178V284H88.9668ZM102.463 270.973C103.114 270.999 103.508 271.012 103.645 271.012H104.348C104.693 271.012 104.969 270.986 105.178 270.934L105.168 284H102.463V270.973ZM108.928 284C108.967 283.779 108.986 283.538 108.986 283.277V271.012H110.939L116.115 279.156V271.676C116.115 271.318 116.083 271.096 116.018 271.012H118.654C118.622 271.272 118.605 271.559 118.605 271.871V284H116.574L111.477 276.178V284H108.928ZM132.824 276.168C132.701 276.389 132.639 276.92 132.639 277.76V280.787C132.639 281.705 132.163 282.503 131.213 283.18C130.23 283.889 129.025 284.244 127.6 284.244C125.62 284.244 124.042 283.622 122.863 282.379C121.724 281.194 121.154 279.684 121.154 277.848C121.154 275.895 121.734 274.267 122.893 272.965C124.188 271.5 125.972 270.768 128.244 270.768C129.761 270.768 130.962 271.061 131.848 271.646L131.691 274.527L131.613 274.547C131.385 274.15 130.936 273.824 130.266 273.57C129.628 273.329 128.957 273.209 128.254 273.209C127.557 273.209 126.945 273.32 126.418 273.541C125.897 273.762 125.454 274.078 125.09 274.488C124.322 275.328 123.938 276.438 123.938 277.818C123.938 279.023 124.276 279.99 124.953 280.719C125.63 281.441 126.503 281.803 127.57 281.803C128.749 281.803 129.543 281.497 129.953 280.885C130.083 280.689 130.148 280.468 130.148 280.221V278.6H128.889C128.212 278.6 127.844 278.658 127.785 278.775L127.756 278.766L127.668 276.217C127.85 276.269 128.589 276.295 129.885 276.295H131.037C131.753 276.295 132.339 276.246 132.795 276.148L132.824 276.168ZM142.844 270.963C143.247 270.995 143.583 271.012 143.85 271.012H144.66C144.934 271.012 145.22 270.986 145.52 270.934V279.01C145.52 280.611 145.035 281.897 144.064 282.867C143.146 283.785 141.994 284.244 140.607 284.244C139.09 284.244 137.863 283.85 136.926 283.062C135.878 282.177 135.354 280.901 135.354 279.234V270.963C135.894 270.995 136.402 271.012 136.877 271.012C137.359 271.012 137.756 270.986 138.068 270.934V279.361C138.068 280.182 138.319 280.82 138.82 281.275C139.289 281.692 139.875 281.9 140.578 281.9C141.62 281.9 142.313 281.367 142.658 280.299C142.782 279.915 142.844 279.439 142.844 278.873V270.963ZM148.889 284C148.928 283.779 148.947 283.538 148.947 283.277V271.012H150.9L156.076 279.156V271.676C156.076 271.318 156.044 271.096 155.979 271.012H158.615C158.583 271.272 158.566 271.559 158.566 271.871V284H156.535L151.438 276.178V284H148.889ZM171.359 284.059C171.047 284.02 170.445 284 169.553 284H168.771V270.973C169.188 270.999 169.647 271.012 170.148 271.012C170.65 271.012 171.005 270.986 171.213 270.934L174.494 276.51L177.648 270.934C177.857 270.986 178.254 271.012 178.84 271.012C179.426 271.012 179.927 270.999 180.344 270.973V284H179.562C178.671 284 178.068 284.02 177.756 284.059V275.309L174.562 281.021L171.359 275.768V284.059ZM190.295 281.656C190.699 281.656 190.979 281.617 191.135 281.539L191.174 281.549L191.076 284H183.762V270.943C183.938 270.956 184.133 270.966 184.348 270.973L185.031 270.992C185.487 271.005 185.982 271.012 186.516 271.012C188.007 271.012 189.481 270.986 190.939 270.934C190.868 271.507 190.832 272.271 190.832 273.229C190.832 273.333 190.839 273.411 190.852 273.463L190.832 273.492C190.493 273.395 190.012 273.346 189.387 273.346H186.311V275.836H188.625C189.341 275.836 189.771 275.816 189.914 275.777L189.943 278.189C189.631 278.157 189.227 278.141 188.732 278.141H186.311V281.656H190.295ZM193.869 284C193.908 283.779 193.928 283.538 193.928 283.277V271.012H195.881L201.057 279.156V271.676C201.057 271.318 201.024 271.096 200.959 271.012H203.596C203.563 271.272 203.547 271.559 203.547 271.871V284H201.516L196.418 276.178V284H193.869ZM214.904 271.734L214.719 274.605L214.65 274.625C214.169 273.902 213.348 273.434 212.189 273.219C211.825 273.147 211.473 273.111 211.135 273.111C210.803 273.111 210.516 273.141 210.275 273.199C210.041 273.258 209.839 273.342 209.67 273.453C209.312 273.688 209.133 273.993 209.133 274.371C209.133 274.866 209.289 275.237 209.602 275.484C209.992 275.784 210.64 275.995 211.545 276.119C212.45 276.236 213.176 276.399 213.723 276.607C214.27 276.816 214.719 277.079 215.07 277.398C215.734 277.997 216.066 278.844 216.066 279.938C216.066 281.37 215.526 282.473 214.445 283.248C213.521 283.912 212.355 284.244 210.949 284.244C209.816 284.244 208.697 284.029 207.59 283.6C207.225 283.456 206.906 283.29 206.633 283.102L206.74 279.84L206.779 279.811C207.587 281.204 208.911 281.9 210.754 281.9C212.062 281.9 212.928 281.585 213.352 280.953C213.495 280.738 213.566 280.501 213.566 280.24C213.566 279.973 213.524 279.755 213.439 279.586C213.355 279.41 213.215 279.26 213.02 279.137C212.642 278.889 212.007 278.723 211.115 278.639C210.223 278.554 209.494 278.395 208.928 278.16C208.361 277.926 207.909 277.636 207.57 277.291C206.958 276.666 206.652 275.794 206.652 274.674C206.652 273.515 207.059 272.577 207.873 271.861C208.7 271.132 209.813 270.768 211.213 270.768C212.619 270.768 213.85 271.09 214.904 271.734ZM219.67 284.078C219.11 284.026 218.456 284 217.707 284H216.936L221.184 272.096C221.372 271.562 221.467 271.253 221.467 271.168C221.467 271.077 221.464 271.021 221.457 271.002L221.467 270.982C221.89 271.002 222.339 271.012 222.814 271.012C223.205 271.012 223.674 271.005 224.221 270.992L224.23 271.012C224.217 271.038 224.211 271.074 224.211 271.119C224.211 271.243 224.309 271.572 224.504 272.105L228.84 284.029C228.71 284.023 228.557 284.02 228.381 284.02C228.381 284.02 228.212 284.013 227.873 284C227.71 284 227.564 284 227.434 284H225.92L225.002 281.188H220.588L219.67 284.078ZM224.24 278.844L222.766 274.303L221.33 278.844H224.24ZM233.117 270.963C233.521 270.995 233.814 271.012 233.996 271.012H234.758C235.077 271.012 235.393 270.986 235.705 270.934V279.684C235.705 281.116 235.324 282.242 234.562 283.062C233.84 283.85 232.863 284.244 231.633 284.244C230.786 284.244 230.077 284.075 229.504 283.736C229.289 283.613 229.074 283.463 228.859 283.287V280.465L228.928 280.445C229.201 280.875 229.52 281.227 229.885 281.5C230.256 281.773 230.715 281.91 231.262 281.91C232.499 281.91 233.117 281.194 233.117 279.762V270.963ZM245.354 281.656C245.757 281.656 246.037 281.617 246.193 281.539L246.232 281.549L246.135 284H238.82V270.943C238.996 270.956 239.191 270.966 239.406 270.973L240.09 270.992C240.546 271.005 241.04 271.012 241.574 271.012C243.065 271.012 244.54 270.986 245.998 270.934C245.926 271.507 245.891 272.271 245.891 273.229C245.891 273.333 245.897 273.411 245.91 273.463L245.891 273.492C245.552 273.395 245.07 273.346 244.445 273.346H241.369V275.836H243.684C244.4 275.836 244.829 275.816 244.973 275.777L245.002 278.189C244.689 278.157 244.286 278.141 243.791 278.141H241.369V281.656H245.354ZM262.326 278.385C262.014 278.352 261.61 278.336 261.115 278.336H258.156V284H255.48V270.943C255.656 270.956 255.858 270.966 256.086 270.973L256.809 270.992C257.303 271.005 257.818 271.012 258.352 271.012C259.953 271.012 261.483 270.986 262.941 270.934C262.87 271.507 262.834 272.271 262.834 273.229C262.834 273.333 262.84 273.411 262.854 273.463L262.834 273.492C262.489 273.395 262.007 273.346 261.389 273.346H258.156V276.031H261.008C261.724 276.031 262.154 276.012 262.297 275.973L262.326 278.385ZM272.863 270.963C273.267 270.995 273.602 271.012 273.869 271.012H274.68C274.953 271.012 275.24 270.986 275.539 270.934V279.01C275.539 280.611 275.054 281.897 274.084 282.867C273.166 283.785 272.014 284.244 270.627 284.244C269.11 284.244 267.883 283.85 266.945 283.062C265.897 282.177 265.373 280.901 265.373 279.234V270.963C265.913 270.995 266.421 271.012 266.896 271.012C267.378 271.012 267.775 270.986 268.088 270.934V279.361C268.088 280.182 268.339 280.82 268.84 281.275C269.309 281.692 269.895 281.9 270.598 281.9C271.639 281.9 272.333 281.367 272.678 280.299C272.801 279.915 272.863 279.439 272.863 278.873V270.963ZM285.354 281.656C285.757 281.656 286.037 281.617 286.193 281.539L286.232 281.549L286.135 284H278.82V270.943C278.996 270.956 279.191 270.966 279.406 270.973L280.09 270.992C280.546 271.005 281.04 271.012 281.574 271.012C283.065 271.012 284.54 270.986 285.998 270.934C285.926 271.507 285.891 272.271 285.891 273.229C285.891 273.333 285.897 273.411 285.91 273.463L285.891 273.492C285.552 273.395 285.07 273.346 284.445 273.346H281.369V275.836H283.684C284.4 275.836 284.829 275.816 284.973 275.777L285.002 278.189C284.689 278.157 284.286 278.141 283.791 278.141H281.369V281.656H285.354ZM136.271 306.656C136.675 306.656 136.955 306.617 137.111 306.539L137.15 306.549L137.053 309H129.738V295.943C129.914 295.956 130.109 295.966 130.324 295.973L131.008 295.992C131.464 296.005 131.958 296.012 132.492 296.012C133.983 296.012 135.458 295.986 136.916 295.934C136.844 296.507 136.809 297.271 136.809 298.229C136.809 298.333 136.815 298.411 136.828 298.463L136.809 298.492C136.47 298.395 135.988 298.346 135.363 298.346H132.287V300.836H134.602C135.318 300.836 135.747 300.816 135.891 300.777L135.92 303.189C135.607 303.157 135.204 303.141 134.709 303.141H132.287V306.656H136.271ZM139.846 309C139.885 308.779 139.904 308.538 139.904 308.277V296.012H141.857L147.033 304.156V296.676C147.033 296.318 147.001 296.096 146.936 296.012H149.572C149.54 296.272 149.523 296.559 149.523 296.871V309H147.492L142.395 301.178V309H139.846ZM158.859 295.768C160.077 295.768 161.115 295.979 161.975 296.402V299.391L161.955 299.41C161.59 298.85 160.822 298.479 159.65 298.297C159.305 298.238 158.869 298.209 158.342 298.209C157.814 298.209 157.297 298.31 156.789 298.512C156.281 298.707 155.865 298.987 155.539 299.352C154.908 300.061 154.592 301.074 154.592 302.389C154.592 303.919 154.992 305.058 155.793 305.807C156.457 306.432 157.336 306.744 158.43 306.744C159.667 306.744 160.669 306.48 161.438 305.953C161.717 305.764 161.955 305.53 162.15 305.25L162.18 305.27V308.004C161.184 308.831 159.842 309.244 158.156 309.244C156.171 309.244 154.615 308.613 153.488 307.35C152.408 306.145 151.867 304.55 151.867 302.564C151.867 300.462 152.46 298.805 153.645 297.594C154.842 296.376 156.581 295.768 158.859 295.768ZM165.705 307.457C165.113 306.891 164.644 306.21 164.299 305.416C163.96 304.622 163.791 303.753 163.791 302.809C163.791 301.858 163.951 300.96 164.27 300.113C164.589 299.267 165.044 298.521 165.637 297.877C166.229 297.232 166.945 296.721 167.785 296.344C168.625 295.96 169.566 295.768 170.607 295.768C172.404 295.768 173.918 296.334 175.148 297.467C176.464 298.678 177.121 300.312 177.121 302.369C177.121 304.361 176.444 306.018 175.09 307.34C174.257 308.154 173.264 308.714 172.111 309.02C171.545 309.169 170.881 309.244 170.119 309.244C169.364 309.244 168.586 309.088 167.785 308.775C166.991 308.463 166.298 308.023 165.705 307.457ZM166.506 302.672C166.506 303.277 166.607 303.834 166.809 304.342C167.01 304.85 167.29 305.286 167.648 305.65C168.41 306.419 169.39 306.803 170.588 306.803C171.727 306.803 172.642 306.435 173.332 305.699C174.035 304.938 174.387 303.899 174.387 302.584C174.387 301.347 174.051 300.315 173.381 299.488C172.658 298.603 171.669 298.16 170.412 298.16C169.195 298.16 168.228 298.609 167.512 299.508C166.841 300.348 166.506 301.402 166.506 302.672ZM179.729 309C179.768 308.779 179.787 308.538 179.787 308.277V296.012H181.74L186.916 304.156V296.676C186.916 296.318 186.883 296.096 186.818 296.012H189.455C189.423 296.272 189.406 296.559 189.406 296.871V309H187.375L182.277 301.178V309H179.729ZM197.609 309.059C197.297 309.02 196.493 309 195.197 309H194.885V298.199H192.951C192.378 298.199 192.04 298.229 191.936 298.287C191.831 298.346 191.75 298.398 191.691 298.443L191.662 298.434V295.934L191.691 295.904C191.906 295.976 192.486 296.012 193.43 296.012H199.553C200.126 296.012 200.464 295.982 200.568 295.924C200.673 295.865 200.754 295.813 200.812 295.768L200.842 295.777V298.277L200.812 298.307C200.598 298.235 200.018 298.199 199.074 298.199H197.609V309.059ZM207.141 303.951C206.945 303.964 206.737 303.971 206.516 303.971C206.294 303.971 205.965 303.954 205.529 303.922V309H202.941V295.943C203.853 295.826 204.973 295.768 206.301 295.768C208.111 295.768 209.458 296.103 210.344 296.773C211.236 297.438 211.682 298.466 211.682 299.859C211.682 300.94 211.275 301.865 210.461 302.633C210.194 302.88 209.888 303.095 209.543 303.277L211.535 307.477C211.926 308.342 212.225 308.857 212.434 309.02L212.385 309.068C211.753 308.964 210.76 308.967 209.406 309.078L207.141 303.951ZM206.486 298.072C206.154 298.072 205.835 298.089 205.529 298.121V301.852C205.848 301.897 206.223 301.92 206.652 301.92C207.082 301.92 207.443 301.884 207.736 301.812C208.029 301.734 208.283 301.617 208.498 301.461C208.96 301.116 209.191 300.598 209.191 299.908C209.191 299.218 208.951 298.733 208.469 298.453C208.02 298.199 207.359 298.072 206.486 298.072ZM215.549 309.078C214.989 309.026 214.335 309 213.586 309H212.814L217.062 297.096C217.251 296.562 217.346 296.253 217.346 296.168C217.346 296.077 217.342 296.021 217.336 296.002L217.346 295.982C217.769 296.002 218.218 296.012 218.693 296.012C219.084 296.012 219.553 296.005 220.1 295.992L220.109 296.012C220.096 296.038 220.09 296.074 220.09 296.119C220.09 296.243 220.188 296.572 220.383 297.105L224.719 309.029C224.589 309.023 224.436 309.02 224.26 309.02C224.26 309.02 224.09 309.013 223.752 309C223.589 309 223.443 309 223.312 309H221.799L220.881 306.188H216.467L215.549 309.078ZM220.119 303.844L218.645 299.303L217.209 303.844H220.119ZM229.465 309.244C228.41 309.244 227.417 309.16 226.486 308.99V295.924C227.346 295.82 228.342 295.768 229.475 295.768C230.614 295.768 231.643 295.924 232.561 296.236C233.485 296.542 234.257 296.982 234.875 297.555C236.125 298.701 236.75 300.305 236.75 302.369C236.75 304.68 236.053 306.435 234.66 307.633C233.41 308.707 231.678 309.244 229.465 309.244ZM229.025 306.861C229.449 306.939 229.872 306.979 230.295 306.979C230.718 306.979 231.174 306.897 231.662 306.734C232.15 306.565 232.574 306.305 232.932 305.953C233.7 305.211 234.084 304.13 234.084 302.711C234.084 300.38 233.234 298.948 231.535 298.414C230.975 298.238 230.327 298.15 229.592 298.15H229.328C229.23 298.15 229.13 298.154 229.025 298.16V306.861ZM240.686 307.457C240.093 306.891 239.624 306.21 239.279 305.416C238.941 304.622 238.771 303.753 238.771 302.809C238.771 301.858 238.931 300.96 239.25 300.113C239.569 299.267 240.025 298.521 240.617 297.877C241.21 297.232 241.926 296.721 242.766 296.344C243.605 295.96 244.546 295.768 245.588 295.768C247.385 295.768 248.898 296.334 250.129 297.467C251.444 298.678 252.102 300.312 252.102 302.369C252.102 304.361 251.424 306.018 250.07 307.34C249.237 308.154 248.244 308.714 247.092 309.02C246.525 309.169 245.861 309.244 245.1 309.244C244.344 309.244 243.566 309.088 242.766 308.775C241.971 308.463 241.278 308.023 240.686 307.457ZM241.486 302.672C241.486 303.277 241.587 303.834 241.789 304.342C241.991 304.85 242.271 305.286 242.629 305.65C243.391 306.419 244.37 306.803 245.568 306.803C246.708 306.803 247.622 306.435 248.312 305.699C249.016 304.938 249.367 303.899 249.367 302.584C249.367 301.347 249.032 300.315 248.361 299.488C247.639 298.603 246.649 298.16 245.393 298.16C244.175 298.16 243.208 298.609 242.492 299.508C241.822 300.348 241.486 301.402 241.486 302.672Z" fill="#595959" fill-opacity="0.8"/>
<path d="M62.0073 26.5438C58.9326 26.5474 55.9847 27.8128 53.8105 30.0624C51.6363 32.3121 50.4133 35.3622 50.4099 38.5437V169.002C50.4133 172.184 51.6363 175.234 53.8105 177.484C55.9847 179.733 58.9326 180.999 62.0073 181.002H323.347C326.422 180.999 329.37 179.733 331.544 177.484C333.718 175.234 334.941 172.184 334.945 169.002V38.5437C334.941 35.3622 333.718 32.3121 331.544 30.0624C329.37 27.8128 326.422 26.5474 323.347 26.5438H62.0073Z" fill="#E5E8EF"/>
<path d="M323.347 181.47H62.0073C58.8126 181.467 55.7498 180.152 53.4908 177.815C51.2318 175.477 49.9611 172.308 49.9575 169.002V38.5437C49.9611 35.2381 51.2318 32.069 53.4908 29.7316C55.7498 27.3943 58.8126 26.0795 62.0073 26.0757H323.347C326.542 26.0795 329.605 27.3943 331.864 29.7316C334.123 32.069 335.393 35.2381 335.397 38.5437V169.002C335.393 172.308 334.123 175.477 331.864 177.814C329.605 180.152 326.542 181.467 323.347 181.47ZM62.0073 27.0118C59.0525 27.0153 56.2196 28.2313 54.1302 30.3932C52.0408 32.5551 50.8655 35.4863 50.8622 38.5437V169.002C50.8655 172.06 52.0408 174.991 54.1302 177.153C56.2196 179.315 59.0525 180.531 62.0073 180.534H323.347C326.302 180.531 329.135 179.315 331.224 177.153C333.314 174.991 334.489 172.06 334.492 169.002V38.5437C334.489 35.4863 333.314 32.5551 331.224 30.3932C329.135 28.2313 326.302 27.0153 323.347 27.0118H62.0073Z" fill="#3F3D56" fill-opacity="0.4"/>
<path d="M137.415 174.163C137.435 173.639 135.884 173.15 133.95 173.071C132.017 172.991 130.433 173.352 130.413 173.875C130.393 174.399 131.944 174.888 133.877 174.968C135.811 175.047 137.395 174.687 137.415 174.163Z" fill="#E6E6E6"/>
<path d="M159.717 172.941C159.737 172.417 158.186 171.928 156.253 171.848C154.319 171.769 152.736 172.129 152.716 172.653C152.695 173.177 154.247 173.666 156.18 173.745C158.114 173.825 159.697 173.464 159.717 172.941Z" fill="#3F3D56"/>
<path d="M128.846 167.042C128.866 166.519 127.315 166.03 125.381 165.95C123.448 165.871 121.864 166.231 121.844 166.755C121.824 167.279 123.375 167.768 125.308 167.847C127.242 167.926 128.826 167.566 128.846 167.042Z" fill="#FF6584"/>
<path d="M118.074 164.441C118.125 163.973 117.474 163.512 116.618 163.412C115.763 163.311 115.028 163.608 114.976 164.076C114.925 164.543 115.576 165.004 116.432 165.105C117.287 165.206 118.022 164.909 118.074 164.441Z" fill="#E6E6E6"/>
<path d="M112.927 158.987C112.978 158.519 112.327 158.058 111.471 157.957C110.616 157.856 109.881 158.154 109.829 158.622C109.778 159.089 110.429 159.55 111.285 159.651C112.14 159.752 112.875 159.454 112.927 158.987Z" fill="#3F3D56"/>
<path d="M142.014 168.274C142.065 167.806 141.414 167.345 140.558 167.244C139.703 167.143 138.968 167.441 138.917 167.909C138.865 168.376 139.517 168.837 140.372 168.938C141.227 169.039 141.962 168.741 142.014 168.274Z" fill="#E6E6E6"/>
<path d="M131.807 170.595C131.858 170.127 131.207 169.666 130.351 169.565C129.496 169.464 128.761 169.762 128.709 170.229C128.658 170.697 129.309 171.158 130.165 171.259C131.02 171.36 131.755 171.062 131.807 170.595Z" fill="#FF6584"/>
<path d="M148.316 174.333C148.368 173.866 147.716 173.405 146.861 173.304C146.006 173.203 145.271 173.5 145.219 173.968C145.168 174.436 145.819 174.897 146.675 174.997C147.53 175.098 148.265 174.801 148.316 174.333Z" fill="#3F3D56"/>
<path d="M2.38259e-06 154.979C-0.000208449 155.052 0.0135748 155.125 0.0405544 155.193C0.067534 155.26 0.107182 155.322 0.157213 155.374C0.207245 155.425 0.266671 155.466 0.33208 155.494C0.397489 155.522 0.467587 155.536 0.53834 155.536H382.462C382.604 155.536 382.741 155.478 382.842 155.373C382.943 155.269 383 155.127 383 154.979C383 154.832 382.943 154.69 382.842 154.585C382.741 154.481 382.604 154.422 382.462 154.422H0.538312C0.467562 154.422 0.397471 154.436 0.332066 154.464C0.266662 154.492 0.207234 154.533 0.157206 154.585C0.107178 154.637 0.0675331 154.698 0.0405544 154.766C0.0135757 154.834 -0.00020603 154.906 2.38259e-06 154.979Z" fill="#CCCCCC"/>
<path d="M130.546 145.139C130.286 145.151 130.028 145.08 129.808 144.936C129.588 144.792 129.416 144.582 129.316 144.333C129.216 144.084 129.191 143.81 129.247 143.547C129.302 143.283 129.434 143.044 129.626 142.861L129.713 142.503C129.701 142.474 129.69 142.446 129.678 142.417C129.416 141.777 128.977 141.231 128.416 140.848C127.855 140.465 127.197 140.262 126.525 140.264C125.853 140.267 125.196 140.475 124.638 140.862C124.08 141.25 123.645 141.799 123.387 142.441C122.358 145.005 121.048 147.574 120.726 150.285C120.584 151.483 120.644 152.698 120.903 153.875C118.486 148.421 117.231 142.492 117.223 136.492C117.223 134.987 117.304 133.482 117.465 131.986C117.599 130.759 117.785 129.541 118.022 128.332C119.317 121.771 122.098 115.621 126.137 110.388C128.091 109.284 129.672 107.587 130.666 105.526C131.026 104.785 131.28 103.994 131.421 103.177C131.201 103.207 130.59 99.7327 130.756 99.5196C130.449 99.0371 129.899 98.7973 129.563 98.3266C127.894 95.9853 125.595 96.3941 124.394 99.5757C121.83 100.915 121.805 103.136 123.379 105.272C124.38 106.63 124.517 108.469 125.396 109.924C125.305 110.044 125.211 110.16 125.121 110.279C123.469 112.477 122.029 114.837 120.823 117.325C121.116 114.538 120.766 111.718 119.8 109.097C118.822 106.656 116.988 104.599 115.374 102.488C113.434 99.9521 109.457 101.059 109.115 104.273C109.112 104.304 109.108 104.335 109.105 104.367C109.345 104.507 109.58 104.655 109.81 104.812C110.098 105.012 110.322 105.297 110.451 105.63C110.58 105.963 110.61 106.329 110.534 106.68C110.459 107.03 110.284 107.349 110.03 107.595C109.777 107.841 109.458 108.001 109.115 108.056L109.08 108.062C109.165 108.956 109.316 109.842 109.532 110.713C107.46 119.002 111.933 122.022 118.319 122.157C118.459 122.232 118.597 122.307 118.738 122.378C117.525 125.933 116.765 129.637 116.475 133.396C116.311 135.613 116.321 137.841 116.504 140.056L116.493 139.978C116.031 137.514 114.76 135.291 112.897 133.684C110.129 131.331 106.219 130.465 103.233 128.574C102.916 128.363 102.547 128.251 102.17 128.25C101.793 128.249 101.423 128.359 101.105 128.569C100.787 128.778 100.533 129.077 100.373 129.43C100.214 129.784 100.155 130.177 100.205 130.564C100.209 130.592 100.213 130.619 100.217 130.647C100.662 130.834 101.096 131.05 101.515 131.294C101.755 131.434 101.989 131.582 102.219 131.74C102.508 131.939 102.731 132.224 102.861 132.557C102.99 132.891 103.019 133.257 102.944 133.607C102.869 133.958 102.693 134.277 102.44 134.522C102.187 134.768 101.868 134.928 101.525 134.983L101.489 134.989C101.464 134.993 101.442 134.996 101.417 135C102.178 136.879 103.245 138.608 104.573 140.112C105.868 147.349 111.431 148.035 117.382 145.928H117.386C118.039 148.864 118.985 151.721 120.209 154.455H130.293C130.329 154.339 130.362 154.219 130.395 154.103C129.461 154.164 128.524 154.106 127.604 153.931C128.352 152.981 129.101 152.024 129.849 151.074C129.865 151.056 129.881 151.038 129.896 151.018C130.275 150.532 130.658 150.049 131.038 149.563L131.038 149.563C131.058 148.072 130.893 146.585 130.546 145.139L130.546 145.139Z" fill="#F2F2F2"/>
<path d="M127.71 154.205C127.659 154.196 127.608 154.187 127.557 154.177L127.153 154.1L127.408 153.777C127.782 153.302 128.156 152.825 128.53 152.348C128.904 151.872 129.278 151.395 129.652 150.919L129.659 150.911L129.667 150.903C129.677 150.892 129.686 150.881 129.695 150.869L129.699 150.864L129.699 150.864C129.888 150.622 130.078 150.38 130.268 150.14L130.27 150.136C130.444 149.916 130.617 149.696 130.789 149.476C130.801 148.098 130.653 146.724 130.347 145.383C130.107 145.36 129.875 145.279 129.671 145.145C129.408 144.973 129.203 144.721 129.084 144.427C128.965 144.132 128.937 143.807 129.002 143.495C129.062 143.208 129.2 142.945 129.399 142.734L129.451 142.522L129.447 142.512C129.447 142.512 129.447 142.512 129.446 142.512C129.203 141.916 128.795 141.409 128.275 141.054C127.755 140.699 127.147 140.512 126.526 140.514C125.905 140.517 125.298 140.709 124.781 141.068C124.263 141.427 123.859 141.937 123.619 142.534L123.619 142.535C123.398 143.085 123.166 143.632 122.935 144.177C122.076 146.204 121.224 148.213 120.974 150.314C120.835 151.485 120.894 152.672 121.147 153.821L120.674 153.977C118.244 148.49 116.981 142.527 116.973 136.493V136.492C116.973 134.978 117.054 133.464 117.217 131.959L117.217 131.959C117.351 130.725 117.538 129.5 117.777 128.284L117.777 128.283C119.08 121.685 121.877 115.499 125.939 110.235L125.97 110.195L126.014 110.17C127.923 109.092 129.468 107.434 130.44 105.417L130.441 105.417C130.772 104.734 131.012 104.008 131.152 103.259C131.128 103.218 131.108 103.173 131.091 103.131C131.047 103.024 131.003 102.877 130.959 102.712C130.871 102.378 130.778 101.933 130.697 101.484C130.617 101.034 130.548 100.574 130.51 100.211C130.491 100.031 130.479 99.8686 130.478 99.7418C130.477 99.68 130.479 99.6202 130.485 99.5679C130.361 99.4044 130.2 99.2668 130.011 99.1118C130 99.1028 129.989 99.0936 129.978 99.0844C129.774 98.9171 129.54 98.7253 129.36 98.4717C128.556 97.3447 127.654 96.9473 126.857 97.1241C126.044 97.3046 125.216 98.1066 124.628 99.664L124.595 99.7532L124.51 99.7973C123.28 100.44 122.7 101.269 122.583 102.157C122.464 103.059 122.815 104.084 123.58 105.123C124.107 105.838 124.402 106.673 124.671 107.483C124.692 107.548 124.714 107.613 124.735 107.678C124.983 108.43 125.222 109.152 125.61 109.795L125.697 109.94L125.595 110.075C125.549 110.136 125.502 110.196 125.456 110.255L125.455 110.256C125.409 110.315 125.364 110.372 125.321 110.43C123.679 112.614 122.247 114.96 121.047 117.434L120.574 117.299C120.863 114.551 120.518 111.77 119.567 109.187C118.784 107.233 117.445 105.534 116.094 103.818C115.786 103.427 115.478 103.035 115.175 102.64C113.387 100.302 109.736 101.293 109.371 104.234C109.568 104.352 109.761 104.476 109.951 104.606L109.952 104.607C110.282 104.835 110.537 105.161 110.684 105.54C110.831 105.919 110.864 106.334 110.779 106.732C110.694 107.13 110.494 107.494 110.204 107.775C109.964 108.008 109.67 108.175 109.351 108.261C109.439 109.067 109.58 109.867 109.774 110.653L109.789 110.713L109.774 110.774C108.75 114.874 109.359 117.601 110.938 119.324C112.527 121.058 115.158 121.84 118.324 121.907L118.383 121.909L118.436 121.936C118.473 121.956 118.509 121.976 118.545 121.995C118.649 122.05 118.748 122.103 118.85 122.155L119.045 122.253L118.974 122.459C117.769 125.994 117.012 129.677 116.724 133.415C116.724 133.415 116.724 133.415 116.724 133.415L116.475 133.396C116.347 135.132 116.325 136.875 116.409 138.613L127.71 154.205ZM127.71 154.205H120.371C119.186 151.532 118.268 148.74 117.63 145.874L117.586 145.678H117.386H117.382H117.339L117.299 145.692C114.345 146.738 111.533 147.073 109.315 146.288C107.122 145.512 105.454 143.62 104.819 140.068L104.806 139.999L104.76 139.947C103.518 138.539 102.506 136.931 101.765 135.187C102.083 135.101 102.374 134.934 102.614 134.702C102.903 134.421 103.103 134.058 103.188 133.659C103.274 133.261 103.241 132.846 103.094 132.467C102.947 132.088 102.692 131.762 102.361 131.534L102.36 131.533C102.126 131.373 101.886 131.221 101.641 131.078L101.64 131.078C101.254 130.853 100.855 130.651 100.446 130.473C100.416 130.151 100.469 129.826 100.601 129.533C100.742 129.222 100.964 128.96 101.242 128.778C101.52 128.595 101.842 128.499 102.169 128.5C102.497 128.501 102.818 128.598 103.095 128.782L103.095 128.782L103.099 128.785C104.367 129.588 105.799 130.209 107.22 130.825C107.496 130.944 107.772 131.064 108.046 131.185C109.741 131.931 111.38 132.723 112.734 133.873C114.552 135.441 115.793 137.611 116.246 140.018L127.71 154.205Z" stroke="#595959" stroke-opacity="0.4" stroke-width="0.5"/>
<path d="M80.204 139.349C79.7822 139.369 79.3647 139.255 79.008 139.021C78.6512 138.787 78.3726 138.446 78.2097 138.043C78.0468 137.64 78.0076 137.195 78.0974 136.768C78.1872 136.341 78.4016 135.953 78.7116 135.656C78.7636 135.443 78.8008 135.29 78.8527 135.076C78.8342 135.03 78.8155 134.983 78.7967 134.937C78.3718 133.898 77.6598 133.013 76.7502 132.392C75.8405 131.771 74.7738 131.442 73.684 131.446C72.5942 131.45 71.5298 131.787 70.6247 132.415C69.7195 133.043 69.0139 133.934 68.5965 134.976C66.9282 139.133 64.8042 143.298 64.2812 147.694C64.0509 149.637 64.148 151.606 64.5684 153.515C60.65 144.671 58.6153 135.059 58.6022 125.33C58.6014 122.888 58.7325 120.449 58.9949 118.023C59.2118 116.034 59.5126 114.059 59.8975 112.098C61.9976 101.46 66.5068 91.4884 73.0545 83.0032C76.2237 81.2141 78.7866 78.4627 80.3979 75.12C80.9816 73.9184 81.3942 72.6358 81.6228 71.3119C81.2653 71.3604 80.2748 65.7269 80.5444 65.3813C80.0462 64.599 79.1545 64.2102 78.6104 63.4469C75.9043 59.6507 72.176 60.3135 70.2297 65.4723C66.0719 67.6435 66.0316 71.2444 68.5829 74.7077C70.206 76.911 70.429 79.8924 71.8531 82.2512C71.7066 82.4453 71.5542 82.6333 71.4077 82.8274C68.7294 86.3908 66.395 90.2173 64.4381 94.252C64.914 89.732 64.346 85.1597 62.7809 80.9112C61.1946 76.9517 58.2214 73.617 55.6031 70.1941C52.4581 66.0826 46.0091 67.8769 45.455 73.0889C45.4496 73.1393 45.4444 73.1898 45.4393 73.2402C45.8282 73.4672 46.2089 73.7082 46.5813 73.9631C47.0493 74.2865 47.4118 74.7487 47.6216 75.2891C47.8313 75.8294 47.8783 76.4227 47.7566 76.9912C47.6349 77.5597 47.35 78.0769 46.9394 78.475C46.5287 78.8731 46.0114 79.1336 45.4552 79.2223L45.3983 79.2314C45.5368 80.6817 45.7817 82.1189 46.1308 83.5308C42.7719 96.9713 50.0236 101.867 60.378 102.087C60.6066 102.208 60.8293 102.329 61.0579 102.444C59.0918 108.209 57.8585 114.215 57.3891 120.309C57.1234 123.904 57.1391 127.516 57.436 131.109L57.4184 130.981C56.6682 126.986 54.6085 123.381 51.5871 120.776C47.0995 116.961 40.7595 115.557 35.9183 112.491C33.5878 111.015 30.6015 112.922 31.0083 115.718C31.0147 115.763 31.0213 115.807 31.028 115.852C31.7497 116.156 32.4524 116.506 33.132 116.901C33.5209 117.128 33.9016 117.369 34.274 117.624C34.742 117.947 35.1045 118.409 35.3142 118.95C35.524 119.49 35.571 120.083 35.4493 120.652C35.3276 121.22 35.0427 121.737 34.6321 122.136C34.2214 122.534 33.7041 122.794 33.1479 122.883L33.0909 122.892C33.0499 122.898 33.0147 122.904 32.9738 122.91C34.2069 125.957 35.9376 128.761 38.09 131.2C40.1903 142.933 49.2109 144.046 58.8601 140.629H58.866C59.9247 145.389 61.4586 150.023 63.4431 154.455H79.7942C79.8529 154.267 79.9056 154.073 79.9584 153.885C78.4449 153.983 76.9254 153.89 75.4339 153.606C76.6471 152.066 77.8602 150.513 79.0734 148.973C79.1004 148.944 79.1259 148.914 79.1496 148.882C79.7649 148.094 80.3862 147.312 81.0015 146.523L81.0019 146.522C81.0347 144.106 80.7667 141.695 80.2045 139.35L80.204 139.349Z" fill="#F2F2F2"/>
<path d="M74.5317 153.943L74.5924 153.955H63.7679C61.8609 149.644 60.3819 145.142 59.354 140.521L59.267 140.129H58.866H58.8601H58.7742L58.6932 140.158C53.9124 141.851 49.3766 142.386 45.811 141.124C42.2943 139.88 39.6084 136.844 38.5822 131.112L38.5575 130.974L38.4649 130.869C36.4807 128.621 34.8608 126.056 33.6672 123.274C34.1567 123.123 34.6066 122.857 34.9801 122.495C35.4631 122.026 35.7961 121.42 35.9382 120.756C36.0803 120.093 36.0255 119.4 35.7804 118.769C35.5352 118.137 35.1102 117.594 34.5584 117.212L34.5564 117.211C34.1741 116.949 33.7833 116.702 33.3841 116.469L33.383 116.468C32.7681 116.111 32.1347 115.79 31.4857 115.504C31.2583 113.208 33.7222 111.692 35.6507 112.913C37.7123 114.219 40.0426 115.229 42.3472 116.228C42.7944 116.422 43.2407 116.615 43.6838 116.81C46.4316 118.02 49.0785 119.3 51.2617 121.155C54.192 123.683 56.1933 127.181 56.9248 131.062L56.9407 131.177L57.9343 131.067C57.6395 127.501 57.6239 123.916 57.8877 120.346C58.3539 114.294 59.5787 108.331 61.5311 102.606L61.6716 102.194L61.283 101.998C61.1184 101.915 60.9587 101.83 60.7917 101.74C60.733 101.709 60.6734 101.677 60.6123 101.645L60.5074 101.589L60.3886 101.587C55.2661 101.478 51.0321 100.212 48.4805 97.4285C45.9499 94.6682 44.9587 90.2833 46.6159 83.652L46.6461 83.5314L46.6162 83.4108C46.3083 82.1656 46.0829 80.9003 45.9414 79.6236C46.4437 79.4746 46.9055 79.2043 47.2874 78.834C47.7704 78.3657 48.1034 77.7595 48.2455 77.0959C48.3876 76.4323 48.3328 75.7397 48.0877 75.1082C47.8425 74.4764 47.4175 73.9333 46.8657 73.5518L46.8637 73.5504C46.5715 73.3504 46.2743 73.1588 45.9722 72.9755C46.5962 68.3384 52.3711 66.7918 55.206 70.4978C55.6987 71.1421 56.2002 71.7789 56.7002 72.4138C58.8898 75.1945 61.0492 77.9369 62.3141 81.0906C63.8508 85.2651 64.4085 89.7579 63.9408 94.1996L64.888 94.4702C66.8309 90.4643 69.1485 86.6654 71.8074 83.1278C71.8774 83.035 71.9493 82.9431 72.0242 82.8474L72.0263 82.8446C72.1 82.7505 72.1766 82.6526 72.2521 82.5525L72.4561 82.2825L72.2812 81.9928C71.6579 80.9604 71.2744 79.7991 70.8712 78.5782C70.8367 78.4738 70.8021 78.3689 70.7671 78.2636C70.3317 76.9517 69.8496 75.5843 68.9854 74.4111C67.7522 72.737 67.1983 71.0995 67.3861 69.6706C67.5705 68.2676 68.4869 66.9465 70.4612 65.9155L70.6302 65.8272L70.6975 65.6488C71.6455 63.1362 72.9711 61.8721 74.2435 61.5896C75.4836 61.3143 76.9124 61.9262 78.2033 63.7371C78.5039 64.1589 78.8919 64.4772 79.2211 64.7472C79.24 64.7627 79.2586 64.778 79.2771 64.7932C79.5718 65.0355 79.8177 65.2454 80.0073 65.4872C79.9998 65.5676 79.9978 65.6549 79.9987 65.7426C80.0009 65.9525 80.0207 66.2186 80.0516 66.5128C80.1138 67.1044 80.2256 67.852 80.3562 68.5824C80.4868 69.3122 80.6384 70.0371 80.7821 70.5818C80.8531 70.8511 80.9264 71.0929 80.9993 71.2728C81.0234 71.3324 81.0525 71.3981 81.0876 71.4608C80.8601 72.6558 80.4768 73.8133 79.9482 74.9016L79.9475 74.9029C78.3795 78.1556 75.8871 80.8299 72.8087 82.5678L72.7206 82.6176L72.6587 82.6977C66.0631 91.245 61.5219 101.288 59.4069 112.001L59.4068 112.002C59.0192 113.976 58.7162 115.965 58.4978 117.968L58.4978 117.969C58.2335 120.413 58.1014 122.871 58.1022 125.33V125.33C58.1154 135.129 60.1646 144.81 64.1112 153.718L65.0567 153.408C64.6484 151.554 64.554 149.64 64.7777 147.753C65.1815 144.359 66.5554 141.119 67.9478 137.835C68.3236 136.948 68.7007 136.059 69.0605 135.162L69.0606 135.162C69.4424 134.209 70.0866 133.397 70.9097 132.826C71.7327 132.255 72.6985 131.95 73.6859 131.946C74.6733 131.942 75.6413 132.24 76.4682 132.805C77.2919 133.367 77.9398 134.17 78.329 135.114L78.2584 135.404C77.9325 135.755 77.7076 136.192 77.6081 136.665C77.4979 137.189 77.5459 137.735 77.7461 138.23C77.9464 138.726 78.2903 139.149 78.734 139.439C79.0583 139.652 79.424 139.786 79.8035 139.833C80.2855 141.968 80.5206 144.155 80.5037 146.348C80.231 146.697 79.9571 147.045 79.6827 147.393C79.3736 147.786 79.0639 148.179 78.7554 148.574L78.7553 148.574L78.7486 148.583C78.7361 148.6 78.7229 148.616 78.7091 148.631L78.6941 148.647L78.6806 148.664C78.0737 149.434 77.4668 150.208 76.8603 150.981L76.8557 150.987C76.2506 151.758 75.6458 152.529 75.0411 153.297L74.5317 153.943Z" stroke="#595959" stroke-opacity="0.4"/>
<path d="M303.981 8.44399C302.883 -0.261752 283.476 0.293594 281.644 8.48428C280.672 7.85521 278.199 8.29063 277.277 9.0137C276.355 9.73677 275.763 10.7997 275.185 11.8316C274.395 13.2648 273.576 14.7492 273.401 16.3925C273.219 18.0326 273.841 19.8906 275.278 20.6209C276.418 21.2029 278.927 20.8099 280.18 20.5493C281.055 20.3694 281.789 20.2119 282.412 20.0573C282.621 19.038 282.477 17.9749 282.004 17.0547C282.507 17.1581 282.983 17.3756 283.395 17.6914C283.808 18.0073 284.148 18.4138 284.391 18.8817C284.489 19.0777 288.045 46.7711 288.045 46.7711C289.017 46.8923 289.997 46.9176 290.974 46.8467C291.58 43.4385 291.69 39.9556 291.301 36.5136C292.331 38.481 293.145 40.5609 293.73 42.715C294.065 43.9198 294.34 45.1415 294.554 46.3753C303.016 44.7381 314.455 39.0989 316.542 29.5236C316.53 29.4927 316.519 29.4618 316.507 29.4309C316.393 29.1383 316.381 28.8138 316.473 28.5129C316.564 28.212 316.754 27.9534 317.01 27.7815C317.266 27.6097 317.571 27.5351 317.874 27.5707C318.177 27.6063 318.459 27.7498 318.671 27.9766C318.926 28.2482 319.154 28.4805 319.346 28.6604C318.604 22.5454 314.121 17.0428 303.981 8.44399Z" fill="#2F2E41"/>
<path d="M180.427 221.656L175.683 219.09L183.206 198.512L190.208 202.3L180.427 221.656Z" fill="#FEB6B7"/>
<path d="M161.285 221.408C160.991 221.99 160.933 222.669 161.122 223.296C161.312 223.922 161.734 224.446 162.296 224.751L171.729 229.853L175.109 227.253L173.988 231.072L177.546 233L182.815 220.052L181.614 219.308L176.72 216.258L175.14 215.277L173.365 218.79L163.111 220.098C162.727 220.147 162.36 220.292 162.042 220.52C161.724 220.748 161.464 221.053 161.285 221.408Z" fill="#2F2E41"/>
<path d="M175.567 145.903L172.116 141.668L186.614 125.575L191.706 131.825L175.567 145.903Z" fill="#FEB6B7"/>
<path d="M157.942 138.169C157.458 138.593 157.155 139.198 157.101 139.853C157.047 140.507 157.246 141.157 157.654 141.659L164.516 150.079L168.596 148.999L166.16 152.093L168.746 155.272L178.364 145.356L177.525 144.196L174.113 139.455L173.01 137.927L170.081 140.482L160.113 137.673C159.739 137.568 159.347 137.558 158.969 137.644C158.591 137.731 158.238 137.911 157.942 138.169Z" fill="#2F2E41"/>
<path d="M327.749 130.034C327.749 130.034 342.4 162.48 281.731 153.737C281.731 153.737 249.408 116.672 250.342 112.213C250.342 112.213 236.585 97.7488 237.258 97.4855C237.931 97.2221 238.346 96.6502 237.234 96.7021C236.121 96.7541 236.121 95.0408 236.121 95.0408C236.121 95.0408 211.259 122.938 190.325 136.782L183.087 128.357C183.087 128.357 185.909 119.221 187.267 119.221C188.624 119.221 189.091 119.558 189.31 117.751C189.528 115.944 188.448 114.393 189.893 114.232C191.338 114.072 221.288 77.8541 221.288 77.8541C221.288 77.8541 224.519 65.9248 234.391 68.2339C244.264 70.5429 295.564 113.698 295.564 113.698L327.749 130.034Z" fill="#2F2E41"/>
<path d="M303.044 154.788L222.895 154.1L188.063 211.203L178.219 205.811L180.401 204.858C180.401 204.858 179.741 196.922 180.55 194.912C181.359 192.903 183.767 193.508 183.767 193.508L204.074 145.05C205.475 140.749 208.226 137.057 211.89 134.561C215.554 132.065 219.92 130.91 224.292 131.279C241.096 128.743 268.373 130.769 296.711 133.257L303.044 154.788Z" fill="#2F2E41"/>
<path d="M256.64 57.6051C258.166 57.8471 259.54 58.6954 260.47 59.9697C261.4 61.244 261.813 62.8436 261.621 64.4281C261.577 64.7496 261.508 65.0667 261.413 65.3763L277.882 78.3019L274.484 89.2562L253.773 69.0259C252.563 68.521 251.548 67.6157 250.888 66.4514C250.227 65.287 249.957 63.9291 250.121 62.5895C250.221 61.8282 250.465 61.0948 250.839 60.4311C251.213 59.7673 251.71 59.1864 252.301 58.7213C252.892 58.2562 253.566 57.9162 254.284 57.7206C255.002 57.525 255.751 57.4776 256.486 57.5813C256.538 57.5885 256.589 57.5964 256.64 57.6051Z" fill="#FEB6B7"/>
<path d="M329.295 58.4119L323.373 75.3743L300.217 109.233C300.217 109.233 300.027 109.149 299.683 108.999C297.693 108.11 290.464 104.843 283.665 101.131C277.282 97.6444 271.27 93.7642 270.339 91.0963C270.239 90.8155 270.149 90.544 270.067 90.2819V90.2772C269.633 88.9186 269.361 87.5103 269.258 86.0834C269.181 84.9835 269.248 84.3937 269.104 84.3235C268.991 84.272 268.755 84.5248 268.235 85.0958C268.199 85.1333 268.167 85.1707 268.131 85.2035C266.249 87.1553 263.938 86.9025 264.503 85.9758C265.082 85.0256 264.779 85.0443 263.929 84.0521C263.295 83.3125 261.237 80.42 260.224 78.9924C259.876 78.5009 259.654 78.1826 259.654 78.1826L260.002 77.6163L260.966 76.053L265.548 68.6203L265.801 68.213C265.801 68.213 275.22 70.4644 276.473 72.6034C277.73 74.7424 274.577 74.6722 277.73 74.7424C280.883 74.8126 284.099 70.3755 281.797 74.7892C279.494 79.1983 280.101 80.7382 282.95 80.0408C284.108 79.7553 285.941 80.6587 287.705 81.8288V81.8335C288.808 82.5752 289.872 83.3766 290.894 84.2346C291.984 85.1426 292.721 85.8307 292.721 85.8307L310.608 48.2832L312.589 44.1268C313.193 42.8621 314.034 41.7347 315.064 40.8104C316.094 39.8862 317.292 39.1838 318.587 38.7442L319.207 39.8628C323.066 45.7427 326.44 51.9476 329.295 58.4119Z" fill="#83DBD6"/>
<path d="M330.285 112.248C335.768 113.568 329.935 154.862 323.4 154.991C275.903 155.927 290.365 128.354 287.818 125.714C285.271 123.069 282.973 124.965 285.271 120.851C286.945 117.855 289.428 118.3 289.464 116.619C289.483 115.992 289.161 115.075 288.329 113.568C285.271 108.026 285.271 106.374 285.271 106.374C284.509 104.71 283.969 102.946 283.665 101.131C283.169 98.4333 283.108 95.6687 283.484 92.9498C284.058 88.9613 285.502 85.16 287.705 81.8335V81.8288C287.935 81.4731 288.175 81.1127 288.429 80.757C289.003 79.9472 292.188 80.1017 292.188 80.1017L298.973 50.6142L295.047 38.8566L313.643 29.8418L318.587 38.7443L319.207 39.8629C323.066 45.7428 326.44 51.9476 329.295 58.412C332.041 64.7354 334.298 71.7563 334.379 77.8644C334.596 93.7923 331.941 98.5291 331.941 98.5291C331.941 98.5291 338.387 103.514 335.162 106.561C331.941 109.613 324.803 110.928 330.285 112.248Z" fill="#83DBD6"/>
<path d="M246.038 53.7257L243.004 56.1105C242.404 56.5848 242.011 57.2855 241.91 58.0591C241.809 58.8328 242.009 59.6163 242.465 60.2381L249.772 70.1766L254.088 76.0401C254.545 76.6593 255.221 77.0656 255.968 77.17C256.714 77.2744 257.47 77.0684 258.07 76.5971L261.108 74.2094C261.705 73.7338 262.096 73.0336 262.197 72.2611C262.297 71.4886 262.098 70.7064 261.644 70.0847L261.196 69.4723L252.343 57.4376L250.021 54.2827C249.795 53.9754 249.512 53.7173 249.19 53.5229C248.867 53.3286 248.511 53.202 248.141 53.1503C247.771 53.0985 247.395 53.1227 247.034 53.2215C246.673 53.3202 246.335 53.4915 246.038 53.7257Z" fill="#3F3D56"/>
<path d="M247.625 53.5454L244.356 55.9048C244.068 56.0998 243.823 56.3559 243.637 56.656C243.452 56.9562 243.33 57.2937 243.279 57.6462C243.229 57.9988 243.251 58.3584 243.345 58.7013C243.439 59.0442 243.602 59.3627 243.823 59.6357L248.101 64.9697L250.381 67.8111L251.902 69.7069L255.304 73.948C255.786 74.517 256.452 74.883 257.177 74.9763C257.902 75.0696 258.635 74.8837 259.236 74.454L261.685 72.6862L262.5 72.0981C262.907 71.8178 263.224 71.4196 263.412 70.9534C263.6 70.4873 263.651 69.974 263.558 69.478C263.476 69.0659 263.296 68.6815 263.034 68.3595L252.982 55.8254L251.557 54.0514C251.076 53.4817 250.409 53.1151 249.684 53.0217C248.959 52.9284 248.226 53.1148 247.625 53.5454Z" fill="#E0E0E0"/>
<path d="M249.713 66.7192C251.239 66.9612 252.613 67.8095 253.544 69.0838C254.474 70.3581 254.887 71.9577 254.695 73.5423C254.651 73.8637 254.581 74.1809 254.487 74.4904L270.956 87.416L267.557 98.3703L246.847 78.1401C245.637 77.6351 244.622 76.7298 243.961 75.5655C243.3 74.4011 243.031 73.0432 243.194 71.7036C243.294 70.9423 243.539 70.2089 243.913 69.5452C244.287 68.8815 244.784 68.3005 245.375 67.8354C245.966 67.3704 246.64 67.0303 247.358 66.8347C248.076 66.6391 248.824 66.5917 249.56 66.6954C249.611 66.7026 249.662 66.7105 249.713 66.7192Z" fill="#FEB6B7"/>
<path d="M316.882 47.5498C318.322 47.853 319.681 48.4735 320.868 49.369C322.055 50.2645 323.042 51.414 323.762 52.7394C324.481 54.0647 324.916 55.5349 325.037 57.0498C325.159 58.5646 324.963 60.0888 324.464 61.5185L316.449 84.4873L293.289 118.349C293.289 118.349 265.514 106.21 263.411 100.21C261.308 94.2102 263.207 92.1399 261.308 94.2102C259.409 96.2806 257.001 96.0351 257.578 95.0877C258.154 94.1402 257.851 94.1605 257.002 93.1679C256.153 92.1754 252.728 87.2982 252.728 87.2982L258.875 77.3281C258.875 77.3281 268.293 79.5777 269.548 81.7181C270.803 83.8584 267.649 83.7884 270.803 83.8584C273.957 83.9284 277.174 79.4896 274.87 83.9021C272.567 88.3146 273.174 89.853 276.024 89.1538C278.874 88.4546 285.793 94.9456 285.793 94.9456L305.664 53.242C306.664 51.1443 308.307 49.4482 310.336 48.4184C312.365 47.3887 314.667 47.0832 316.882 47.5498Z" fill="#83DBD6"/>
<path d="M305.031 33.7237C310.789 27.7663 310.789 18.1074 305.031 12.15C299.273 6.19257 289.938 6.19257 284.181 12.15C278.423 18.1074 278.423 27.7663 284.181 33.7237C289.938 39.6811 299.273 39.6811 305.031 33.7237Z" fill="#FEB6B7"/>
<path d="M311.846 6.31798C310.748 -2.38776 291.341 -1.83241 289.508 6.35827C288.536 5.7292 286.064 6.16462 285.141 6.88769C284.219 7.61076 283.628 8.67373 283.049 9.70558C282.259 11.1388 276.731 15.9875 275.903 14.5738C274.038 11.3924 270.383 18.3444 273.189 22.9988C273.861 24.1149 286.863 22.3233 288.116 22.0627C288.991 21.8828 287.493 22.2172 288.116 22.0627C288.318 21.053 290.349 15.8359 289.869 14.9286C290.372 15.0321 290.847 15.2495 291.26 15.5654C291.673 15.8813 292.013 16.2878 292.255 16.7557C292.354 16.9517 295.909 44.645 295.909 44.645C296.881 44.7663 297.862 44.7916 298.839 44.7207C299.445 41.3124 299.555 37.8296 299.166 34.3876C300.196 36.355 301.01 38.4349 301.594 40.5889C301.929 41.7937 302.204 43.0154 302.419 44.2493C310.881 42.612 322.319 36.9729 324.406 27.3976C312.996 23.4669 321.986 14.9168 311.846 6.31798Z" fill="#2F2E41"/>
<path d="M182.795 50.0652C182.984 48.7205 181.623 47.4024 179.755 47.1212C177.887 46.8399 176.219 47.702 176.03 49.0467C175.841 50.3915 177.202 51.7096 179.07 51.9908C180.938 52.2721 182.606 51.41 182.795 50.0652Z" fill="#E6E6E6"/>
<path d="M205.038 47.8195C205.227 46.4748 203.866 45.1567 201.998 44.8754C200.13 44.5942 198.462 45.4563 198.273 46.801C198.084 48.1457 199.445 49.4638 201.313 49.7451C203.182 50.0263 204.849 49.1642 205.038 47.8195Z" fill="#3F3D56"/>
<path d="M176.704 31.4328C176.893 30.0881 175.532 28.77 173.664 28.4887C171.796 28.2075 170.128 29.0696 169.939 30.4143C169.75 31.7591 171.111 33.0772 172.979 33.3584C174.847 33.6397 176.515 32.7776 176.704 31.4328Z" fill="#FF6584"/>
<path d="M167.039 23.8007C167.048 22.5662 166.383 21.5601 165.553 21.5536C164.723 21.5471 164.042 22.5426 164.033 23.7772C164.024 25.0117 164.69 26.0177 165.52 26.0242C166.35 26.0307 167.03 25.0352 167.039 23.8007Z" fill="#E6E6E6"/>
<path d="M163.761 9.58504C163.77 8.35053 163.105 7.34449 162.275 7.338C161.445 7.3315 160.765 8.32701 160.756 9.56153C160.747 10.796 161.412 11.8021 162.242 11.8086C163.072 11.8151 163.752 10.8196 163.761 9.58504Z" fill="#3F3D56"/>
<path d="M189.25 34.6036C189.259 33.3691 188.593 32.363 187.763 32.3565C186.933 32.35 186.253 33.3455 186.244 34.58C186.235 35.8146 186.901 36.8206 187.731 36.8271C188.561 36.8336 189.241 35.8381 189.25 34.6036Z" fill="#E6E6E6"/>
<path d="M178.501 40.1566C178.51 38.9221 177.844 37.9161 177.014 37.9096C176.184 37.9031 175.504 38.8986 175.495 40.1331C175.486 41.3676 176.152 42.3736 176.982 42.3801C177.812 42.3866 178.492 41.3911 178.501 40.1566Z" fill="#FF6584"/>
<path d="M193.464 50.42C193.473 49.1855 192.807 48.1794 191.977 48.173C191.147 48.1665 190.467 49.162 190.458 50.3965C190.449 51.631 191.114 52.637 191.944 52.6435C192.774 52.65 193.455 51.6545 193.464 50.42Z" fill="#3F3D56"/>
<path d="M244.813 63.5468C245.016 63.3965 244.887 62.8484 244.523 62.3227C244.16 61.797 243.701 61.4926 243.498 61.643C243.295 61.7933 243.424 62.3414 243.787 62.8671C244.151 63.3928 244.61 63.6971 244.813 63.5468Z" fill="#3F3D56"/>
<path d="M243.456 61.6746C243.659 61.5243 243.53 60.9762 243.166 60.4505C242.803 59.9247 242.344 59.6204 242.141 59.7707C241.937 59.9211 242.067 60.4691 242.43 60.9949C242.794 61.5206 243.253 61.8249 243.456 61.6746Z" fill="#3F3D56"/>
<path d="M62.811 338.545V349H61.446V338.545H62.811ZM69.1424 340.63C70.1424 340.63 70.9524 340.935 71.5724 341.545C72.1924 342.145 72.5024 343.015 72.5024 344.155V349H71.1524V344.35C71.1524 343.53 70.9474 342.905 70.5374 342.475C70.1274 342.035 69.5674 341.815 68.8574 341.815C68.1374 341.815 67.5624 342.04 67.1324 342.49C66.7124 342.94 66.5024 343.595 66.5024 344.455V349H65.1374V340.78H66.5024V341.95C66.7724 341.53 67.1374 341.205 67.5974 340.975C68.0674 340.745 68.5824 340.63 69.1424 340.63ZM78.1221 340.645C78.8321 340.645 79.4521 340.8 79.9821 341.11C80.5221 341.42 80.9221 341.81 81.1821 342.28V340.78H82.5621V349.18C82.5621 349.93 82.4021 350.595 82.0821 351.175C81.7621 351.765 81.3021 352.225 80.7021 352.555C80.1121 352.885 79.4221 353.05 78.6321 353.05C77.5521 353.05 76.6521 352.795 75.9321 352.285C75.2121 351.775 74.7871 351.08 74.6571 350.2H76.0071C76.1571 350.7 76.4671 351.1 76.9371 351.4C77.4071 351.71 77.9721 351.865 78.6321 351.865C79.3821 351.865 79.9921 351.63 80.4621 351.16C80.9421 350.69 81.1821 350.03 81.1821 349.18V347.455C80.9121 347.935 80.5121 348.335 79.9821 348.655C79.4521 348.975 78.8321 349.135 78.1221 349.135C77.3921 349.135 76.7271 348.955 76.1271 348.595C75.5371 348.235 75.0721 347.73 74.7321 347.08C74.3921 346.43 74.2221 345.69 74.2221 344.86C74.2221 344.02 74.3921 343.285 74.7321 342.655C75.0721 342.015 75.5371 341.52 76.1271 341.17C76.7271 340.82 77.3921 340.645 78.1221 340.645ZM81.1821 344.875C81.1821 344.255 81.0571 343.715 80.8071 343.255C80.5571 342.795 80.2171 342.445 79.7871 342.205C79.3671 341.955 78.9021 341.83 78.3921 341.83C77.8821 341.83 77.4171 341.95 76.9971 342.19C76.5771 342.43 76.2421 342.78 75.9921 343.24C75.7421 343.7 75.6171 344.24 75.6171 344.86C75.6171 345.49 75.7421 346.04 75.9921 346.51C76.2421 346.97 76.5771 347.325 76.9971 347.575C77.4171 347.815 77.8821 347.935 78.3921 347.935C78.9021 347.935 79.3671 347.815 79.7871 347.575C80.2171 347.325 80.5571 346.97 80.8071 346.51C81.0571 346.04 81.1821 345.495 81.1821 344.875ZM86.2339 342.115C86.4739 341.645 86.8139 341.28 87.2539 341.02C87.7039 340.76 88.2489 340.63 88.8889 340.63V342.04H88.5289C86.9989 342.04 86.2339 342.87 86.2339 344.53V349H84.8689V340.78H86.2339V342.115ZM97.9646 344.575C97.9646 344.835 97.9496 345.11 97.9196 345.4H91.3496C91.3996 346.21 91.6746 346.845 92.1746 347.305C92.6846 347.755 93.2996 347.98 94.0196 347.98C94.6096 347.98 95.0996 347.845 95.4896 347.575C95.8896 347.295 96.1696 346.925 96.3296 346.465H97.7996C97.5796 347.255 97.1396 347.9 96.4796 348.4C95.8196 348.89 94.9996 349.135 94.0196 349.135C93.2396 349.135 92.5396 348.96 91.9196 348.61C91.3096 348.26 90.8296 347.765 90.4796 347.125C90.1296 346.475 89.9546 345.725 89.9546 344.875C89.9546 344.025 90.1246 343.28 90.4646 342.64C90.8046 342 91.2796 341.51 91.8896 341.17C92.5096 340.82 93.2196 340.645 94.0196 340.645C94.7996 340.645 95.4896 340.815 96.0896 341.155C96.6896 341.495 97.1496 341.965 97.4696 342.565C97.7996 343.155 97.9646 343.825 97.9646 344.575ZM96.5546 344.29C96.5546 343.77 96.4396 343.325 96.2096 342.955C95.9796 342.575 95.6646 342.29 95.2646 342.1C94.8746 341.9 94.4396 341.8 93.9596 341.8C93.2696 341.8 92.6796 342.02 92.1896 342.46C91.7096 342.9 91.4346 343.51 91.3646 344.29H96.5546ZM102.676 349.135C102.046 349.135 101.481 349.03 100.981 348.82C100.481 348.6 100.086 348.3 99.7963 347.92C99.5063 347.53 99.3463 347.085 99.3163 346.585H100.726C100.766 346.995 100.956 347.33 101.296 347.59C101.646 347.85 102.101 347.98 102.661 347.98C103.181 347.98 103.591 347.865 103.891 347.635C104.191 347.405 104.341 347.115 104.341 346.765C104.341 346.405 104.181 346.14 103.861 345.97C103.541 345.79 103.046 345.615 102.376 345.445C101.766 345.285 101.266 345.125 100.876 344.965C100.496 344.795 100.166 344.55 99.8863 344.23C99.6163 343.9 99.4813 343.47 99.4813 342.94C99.4813 342.52 99.6063 342.135 99.8563 341.785C100.106 341.435 100.461 341.16 100.921 340.96C101.381 340.75 101.906 340.645 102.496 340.645C103.406 340.645 104.141 340.875 104.701 341.335C105.261 341.795 105.561 342.425 105.601 343.225H104.236C104.206 342.795 104.031 342.45 103.711 342.19C103.401 341.93 102.981 341.8 102.451 341.8C101.961 341.8 101.571 341.905 101.281 342.115C100.991 342.325 100.846 342.6 100.846 342.94C100.846 343.21 100.931 343.435 101.101 343.615C101.281 343.785 101.501 343.925 101.761 344.035C102.031 344.135 102.401 344.25 102.871 344.38C103.461 344.54 103.941 344.7 104.311 344.86C104.681 345.01 104.996 345.24 105.256 345.55C105.526 345.86 105.666 346.265 105.676 346.765C105.676 347.215 105.551 347.62 105.301 347.98C105.051 348.34 104.696 348.625 104.236 348.835C103.786 349.035 103.266 349.135 102.676 349.135ZM115.103 344.575C115.103 344.835 115.088 345.11 115.058 345.4H108.488C108.538 346.21 108.813 346.845 109.313 347.305C109.823 347.755 110.438 347.98 111.158 347.98C111.748 347.98 112.238 347.845 112.628 347.575C113.028 347.295 113.308 346.925 113.468 346.465H114.938C114.718 347.255 114.278 347.9 113.618 348.4C112.958 348.89 112.138 349.135 111.158 349.135C110.378 349.135 109.678 348.96 109.058 348.61C108.448 348.26 107.968 347.765 107.618 347.125C107.268 346.475 107.093 345.725 107.093 344.875C107.093 344.025 107.263 343.28 107.603 342.64C107.943 342 108.418 341.51 109.028 341.17C109.648 340.82 110.358 340.645 111.158 340.645C111.938 340.645 112.628 340.815 113.228 341.155C113.828 341.495 114.288 341.965 114.608 342.565C114.938 343.155 115.103 343.825 115.103 344.575ZM113.693 344.29C113.693 343.77 113.578 343.325 113.348 342.955C113.118 342.575 112.803 342.29 112.403 342.1C112.013 341.9 111.578 341.8 111.098 341.8C110.408 341.8 109.818 342.02 109.328 342.46C108.848 342.9 108.573 343.51 108.503 344.29H113.693ZM128.404 344.575C128.404 344.835 128.389 345.11 128.359 345.4H121.789C121.839 346.21 122.114 346.845 122.614 347.305C123.124 347.755 123.739 347.98 124.459 347.98C125.049 347.98 125.539 347.845 125.929 347.575C126.329 347.295 126.609 346.925 126.769 346.465H128.239C128.019 347.255 127.579 347.9 126.919 348.4C126.259 348.89 125.439 349.135 124.459 349.135C123.679 349.135 122.979 348.96 122.359 348.61C121.749 348.26 121.269 347.765 120.919 347.125C120.569 346.475 120.394 345.725 120.394 344.875C120.394 344.025 120.564 343.28 120.904 342.64C121.244 342 121.719 341.51 122.329 341.17C122.949 340.82 123.659 340.645 124.459 340.645C125.239 340.645 125.929 340.815 126.529 341.155C127.129 341.495 127.589 341.965 127.909 342.565C128.239 343.155 128.404 343.825 128.404 344.575ZM126.994 344.29C126.994 343.77 126.879 343.325 126.649 342.955C126.419 342.575 126.104 342.29 125.704 342.1C125.314 341.9 124.879 341.8 124.399 341.8C123.709 341.8 123.119 342.02 122.629 342.46C122.149 342.9 121.874 343.51 121.804 344.29H126.994ZM131.571 337.9V349H130.206V337.9H131.571ZM139.561 341.905V346.75C139.561 347.15 139.646 347.435 139.816 347.605C139.986 347.765 140.281 347.845 140.701 347.845H141.706V349H140.476C139.716 349 139.146 348.825 138.766 348.475C138.386 348.125 138.196 347.55 138.196 346.75V341.905H137.131V340.78H138.196V338.71H139.561V340.78H141.706V341.905H139.561ZM150.86 344.575C150.86 344.835 150.845 345.11 150.815 345.4H144.245C144.295 346.21 144.57 346.845 145.07 347.305C145.58 347.755 146.195 347.98 146.915 347.98C147.505 347.98 147.995 347.845 148.385 347.575C148.785 347.295 149.065 346.925 149.225 346.465H150.695C150.475 347.255 150.035 347.9 149.375 348.4C148.715 348.89 147.895 349.135 146.915 349.135C146.135 349.135 145.435 348.96 144.815 348.61C144.205 348.26 143.725 347.765 143.375 347.125C143.025 346.475 142.85 345.725 142.85 344.875C142.85 344.025 143.02 343.28 143.36 342.64C143.7 342 144.175 341.51 144.785 341.17C145.405 340.82 146.115 340.645 146.915 340.645C147.695 340.645 148.385 340.815 148.985 341.155C149.585 341.495 150.045 341.965 150.365 342.565C150.695 343.155 150.86 343.825 150.86 344.575ZM149.45 344.29C149.45 343.77 149.335 343.325 149.105 342.955C148.875 342.575 148.56 342.29 148.16 342.1C147.77 341.9 147.335 341.8 146.855 341.8C146.165 341.8 145.575 342.02 145.085 342.46C144.605 342.9 144.33 343.51 144.26 344.29H149.45ZM156.952 349L155.002 345.94L153.127 349H151.702L154.357 344.92L151.702 340.78H153.247L155.197 343.825L157.057 340.78H158.482L155.842 344.845L158.497 349H156.952ZM161.505 341.905V346.75C161.505 347.15 161.59 347.435 161.76 347.605C161.93 347.765 162.225 347.845 162.645 347.845H163.65V349H162.42C161.66 349 161.09 348.825 160.71 348.475C160.33 348.125 160.14 347.55 160.14 346.75V341.905H159.075V340.78H160.14V338.71H161.505V340.78H163.65V341.905H161.505ZM168.888 349.135C168.118 349.135 167.418 348.96 166.788 348.61C166.168 348.26 165.678 347.765 165.318 347.125C164.968 346.475 164.793 345.725 164.793 344.875C164.793 344.035 164.973 343.295 165.333 342.655C165.703 342.005 166.203 341.51 166.833 341.17C167.463 340.82 168.168 340.645 168.948 340.645C169.728 340.645 170.433 340.82 171.063 341.17C171.693 341.51 172.188 342 172.548 342.64C172.918 343.28 173.103 344.025 173.103 344.875C173.103 345.725 172.913 346.475 172.533 347.125C172.163 347.765 171.658 348.26 171.018 348.61C170.378 348.96 169.668 349.135 168.888 349.135ZM168.888 347.935C169.378 347.935 169.838 347.82 170.268 347.59C170.698 347.36 171.043 347.015 171.303 346.555C171.573 346.095 171.708 345.535 171.708 344.875C171.708 344.215 171.578 343.655 171.318 343.195C171.058 342.735 170.718 342.395 170.298 342.175C169.878 341.945 169.423 341.83 168.933 341.83C168.433 341.83 167.973 341.945 167.553 342.175C167.143 342.395 166.813 342.735 166.563 343.195C166.313 343.655 166.188 344.215 166.188 344.875C166.188 345.545 166.308 346.11 166.548 346.57C166.798 347.03 167.128 347.375 167.538 347.605C167.948 347.825 168.398 347.935 168.888 347.935ZM178.387 344.86C178.387 344.02 178.557 343.285 178.897 342.655C179.237 342.015 179.702 341.52 180.292 341.17C180.892 340.82 181.562 340.645 182.302 340.645C183.012 340.645 183.632 340.805 184.162 341.125C184.702 341.435 185.097 341.82 185.347 342.28V340.78H186.727V352.9H185.347V347.485C185.087 347.945 184.687 348.335 184.147 348.655C183.607 348.975 182.977 349.135 182.257 349.135C181.537 349.135 180.882 348.955 180.292 348.595C179.702 348.235 179.237 347.73 178.897 347.08C178.557 346.43 178.387 345.69 178.387 344.86ZM185.347 344.875C185.347 344.255 185.222 343.715 184.972 343.255C184.722 342.795 184.382 342.445 183.952 342.205C183.532 341.955 183.067 341.83 182.557 341.83C182.047 341.83 181.582 341.95 181.162 342.19C180.742 342.43 180.407 342.78 180.157 343.24C179.907 343.7 179.782 344.24 179.782 344.86C179.782 345.49 179.907 346.04 180.157 346.51C180.407 346.97 180.742 347.325 181.162 347.575C181.582 347.815 182.047 347.935 182.557 347.935C183.067 347.935 183.532 347.815 183.952 347.575C184.382 347.325 184.722 346.97 184.972 346.51C185.222 346.04 185.347 345.495 185.347 344.875ZM196.324 340.78V349H194.959V347.785C194.699 348.205 194.334 348.535 193.864 348.775C193.404 349.005 192.894 349.12 192.334 349.12C191.694 349.12 191.119 348.99 190.609 348.73C190.099 348.46 189.694 348.06 189.394 347.53C189.104 347 188.959 346.355 188.959 345.595V340.78H190.309V345.415C190.309 346.225 190.514 346.85 190.924 347.29C191.334 347.72 191.894 347.935 192.604 347.935C193.334 347.935 193.909 347.71 194.329 347.26C194.749 346.81 194.959 346.155 194.959 345.295V340.78H196.324ZM206.129 344.575C206.129 344.835 206.114 345.11 206.084 345.4H199.514C199.564 346.21 199.839 346.845 200.339 347.305C200.849 347.755 201.464 347.98 202.184 347.98C202.774 347.98 203.264 347.845 203.654 347.575C204.054 347.295 204.334 346.925 204.494 346.465H205.964C205.744 347.255 205.304 347.9 204.644 348.4C203.984 348.89 203.164 349.135 202.184 349.135C201.404 349.135 200.704 348.96 200.084 348.61C199.474 348.26 198.994 347.765 198.644 347.125C198.294 346.475 198.119 345.725 198.119 344.875C198.119 344.025 198.289 343.28 198.629 342.64C198.969 342 199.444 341.51 200.054 341.17C200.674 340.82 201.384 340.645 202.184 340.645C202.964 340.645 203.654 340.815 204.254 341.155C204.854 341.495 205.314 341.965 205.634 342.565C205.964 343.155 206.129 343.825 206.129 344.575ZM204.719 344.29C204.719 343.77 204.604 343.325 204.374 342.955C204.144 342.575 203.829 342.29 203.429 342.1C203.039 341.9 202.604 341.8 202.124 341.8C201.434 341.8 200.844 342.02 200.354 342.46C199.874 342.9 199.599 343.51 199.529 344.29H204.719ZM211.419 344.86C211.419 344.02 211.589 343.285 211.929 342.655C212.269 342.015 212.734 341.52 213.324 341.17C213.924 340.82 214.594 340.645 215.334 340.645C215.974 340.645 216.569 340.795 217.119 341.095C217.669 341.385 218.089 341.77 218.379 342.25V337.9H219.759V349H218.379V347.455C218.109 347.945 217.709 348.35 217.179 348.67C216.649 348.98 216.029 349.135 215.319 349.135C214.589 349.135 213.924 348.955 213.324 348.595C212.734 348.235 212.269 347.73 211.929 347.08C211.589 346.43 211.419 345.69 211.419 344.86ZM218.379 344.875C218.379 344.255 218.254 343.715 218.004 343.255C217.754 342.795 217.414 342.445 216.984 342.205C216.564 341.955 216.099 341.83 215.589 341.83C215.079 341.83 214.614 341.95 214.194 342.19C213.774 342.43 213.439 342.78 213.189 343.24C212.939 343.7 212.814 344.24 212.814 344.86C212.814 345.49 212.939 346.04 213.189 346.51C213.439 346.97 213.774 347.325 214.194 347.575C214.614 347.815 215.079 347.935 215.589 347.935C216.099 347.935 216.564 347.815 216.984 347.575C217.414 347.325 217.754 346.97 218.004 346.51C218.254 346.04 218.379 345.495 218.379 344.875ZM229.566 344.575C229.566 344.835 229.551 345.11 229.521 345.4H222.951C223.001 346.21 223.276 346.845 223.776 347.305C224.286 347.755 224.901 347.98 225.621 347.98C226.211 347.98 226.701 347.845 227.091 347.575C227.491 347.295 227.771 346.925 227.931 346.465H229.401C229.181 347.255 228.741 347.9 228.081 348.4C227.421 348.89 226.601 349.135 225.621 349.135C224.841 349.135 224.141 348.96 223.521 348.61C222.911 348.26 222.431 347.765 222.081 347.125C221.731 346.475 221.556 345.725 221.556 344.875C221.556 344.025 221.726 343.28 222.066 342.64C222.406 342 222.881 341.51 223.491 341.17C224.111 340.82 224.821 340.645 225.621 340.645C226.401 340.645 227.091 340.815 227.691 341.155C228.291 341.495 228.751 341.965 229.071 342.565C229.401 343.155 229.566 343.825 229.566 344.575ZM228.156 344.29C228.156 343.77 228.041 343.325 227.811 342.955C227.581 342.575 227.266 342.29 226.866 342.1C226.476 341.9 226.041 341.8 225.561 341.8C224.871 341.8 224.281 342.02 223.791 342.46C223.311 342.9 223.036 343.51 222.966 344.29H228.156ZM234.278 349.135C233.648 349.135 233.083 349.03 232.583 348.82C232.083 348.6 231.688 348.3 231.398 347.92C231.108 347.53 230.948 347.085 230.918 346.585H232.328C232.368 346.995 232.558 347.33 232.898 347.59C233.248 347.85 233.703 347.98 234.263 347.98C234.783 347.98 235.193 347.865 235.493 347.635C235.793 347.405 235.943 347.115 235.943 346.765C235.943 346.405 235.783 346.14 235.463 345.97C235.143 345.79 234.648 345.615 233.978 345.445C233.368 345.285 232.868 345.125 232.478 344.965C232.098 344.795 231.768 344.55 231.488 344.23C231.218 343.9 231.083 343.47 231.083 342.94C231.083 342.52 231.208 342.135 231.458 341.785C231.708 341.435 232.063 341.16 232.523 340.96C232.983 340.75 233.508 340.645 234.098 340.645C235.008 340.645 235.743 340.875 236.303 341.335C236.863 341.795 237.163 342.425 237.203 343.225H235.838C235.808 342.795 235.633 342.45 235.313 342.19C235.003 341.93 234.583 341.8 234.053 341.8C233.563 341.8 233.173 341.905 232.883 342.115C232.593 342.325 232.448 342.6 232.448 342.94C232.448 343.21 232.533 343.435 232.703 343.615C232.883 343.785 233.103 343.925 233.363 344.035C233.633 344.135 234.003 344.25 234.473 344.38C235.063 344.54 235.543 344.7 235.913 344.86C236.283 345.01 236.598 345.24 236.858 345.55C237.128 345.86 237.268 346.265 237.278 346.765C237.278 347.215 237.153 347.62 236.903 347.98C236.653 348.34 236.298 348.625 235.838 348.835C235.388 349.035 234.868 349.135 234.278 349.135ZM246.705 344.575C246.705 344.835 246.69 345.11 246.66 345.4H240.09C240.14 346.21 240.415 346.845 240.915 347.305C241.425 347.755 242.04 347.98 242.76 347.98C243.35 347.98 243.84 347.845 244.23 347.575C244.63 347.295 244.91 346.925 245.07 346.465H246.54C246.32 347.255 245.88 347.9 245.22 348.4C244.56 348.89 243.74 349.135 242.76 349.135C241.98 349.135 241.28 348.96 240.66 348.61C240.05 348.26 239.57 347.765 239.22 347.125C238.87 346.475 238.695 345.725 238.695 344.875C238.695 344.025 238.865 343.28 239.205 342.64C239.545 342 240.02 341.51 240.63 341.17C241.25 340.82 241.96 340.645 242.76 340.645C243.54 340.645 244.23 340.815 244.83 341.155C245.43 341.495 245.89 341.965 246.21 342.565C246.54 343.155 246.705 343.825 246.705 344.575ZM245.295 344.29C245.295 343.77 245.18 343.325 244.95 342.955C244.72 342.575 244.405 342.29 244.005 342.1C243.615 341.9 243.18 341.8 242.7 341.8C242.01 341.8 241.42 342.02 240.93 342.46C240.45 342.9 240.175 343.51 240.105 344.29H245.295ZM247.997 344.86C247.997 344.02 248.167 343.285 248.507 342.655C248.847 342.015 249.312 341.52 249.902 341.17C250.502 340.82 251.167 340.645 251.897 340.645C252.617 340.645 253.242 340.8 253.772 341.11C254.302 341.42 254.697 341.81 254.957 342.28V340.78H256.337V349H254.957V347.47C254.687 347.95 254.282 348.35 253.742 348.67C253.212 348.98 252.592 349.135 251.882 349.135C251.152 349.135 250.492 348.955 249.902 348.595C249.312 348.235 248.847 347.73 248.507 347.08C248.167 346.43 247.997 345.69 247.997 344.86ZM254.957 344.875C254.957 344.255 254.832 343.715 254.582 343.255C254.332 342.795 253.992 342.445 253.562 342.205C253.142 341.955 252.677 341.83 252.167 341.83C251.657 341.83 251.192 341.95 250.772 342.19C250.352 342.43 250.017 342.78 249.767 343.24C249.517 343.7 249.392 344.24 249.392 344.86C249.392 345.49 249.517 346.04 249.767 346.51C250.017 346.97 250.352 347.325 250.772 347.575C251.192 347.815 251.657 347.935 252.167 347.935C252.677 347.935 253.142 347.815 253.562 347.575C253.992 347.325 254.332 346.97 254.582 346.51C254.832 346.04 254.957 345.495 254.957 344.875ZM270.142 344.575C270.142 344.835 270.127 345.11 270.097 345.4H263.527C263.577 346.21 263.852 346.845 264.352 347.305C264.862 347.755 265.477 347.98 266.197 347.98C266.787 347.98 267.277 347.845 267.667 347.575C268.067 347.295 268.347 346.925 268.507 346.465H269.977C269.757 347.255 269.317 347.9 268.657 348.4C267.997 348.89 267.177 349.135 266.197 349.135C265.417 349.135 264.717 348.96 264.097 348.61C263.487 348.26 263.007 347.765 262.657 347.125C262.307 346.475 262.132 345.725 262.132 344.875C262.132 344.025 262.302 343.28 262.642 342.64C262.982 342 263.457 341.51 264.067 341.17C264.687 340.82 265.397 340.645 266.197 340.645C266.977 340.645 267.667 340.815 268.267 341.155C268.867 341.495 269.327 341.965 269.647 342.565C269.977 343.155 270.142 343.825 270.142 344.575ZM268.732 344.29C268.732 343.77 268.617 343.325 268.387 342.955C268.157 342.575 267.842 342.29 267.442 342.1C267.052 341.9 266.617 341.8 266.137 341.8C265.447 341.8 264.857 342.02 264.367 342.46C263.887 342.9 263.612 343.51 263.542 344.29H268.732ZM275.949 340.63C276.949 340.63 277.759 340.935 278.379 341.545C278.999 342.145 279.309 343.015 279.309 344.155V349H277.959V344.35C277.959 343.53 277.754 342.905 277.344 342.475C276.934 342.035 276.374 341.815 275.664 341.815C274.944 341.815 274.369 342.04 273.939 342.49C273.519 342.94 273.309 343.595 273.309 344.455V349H271.944V340.78H273.309V341.95C273.579 341.53 273.944 341.205 274.404 340.975C274.874 340.745 275.389 340.63 275.949 340.63ZM281.029 344.875C281.029 344.025 281.199 343.285 281.539 342.655C281.879 342.015 282.349 341.52 282.949 341.17C283.559 340.82 284.254 340.645 285.034 340.645C286.044 340.645 286.874 340.89 287.524 341.38C288.184 341.87 288.619 342.55 288.829 343.42H287.359C287.219 342.92 286.944 342.525 286.534 342.235C286.134 341.945 285.634 341.8 285.034 341.8C284.254 341.8 283.624 342.07 283.144 342.61C282.664 343.14 282.424 343.895 282.424 344.875C282.424 345.865 282.664 346.63 283.144 347.17C283.624 347.71 284.254 347.98 285.034 347.98C285.634 347.98 286.134 347.84 286.534 347.56C286.934 347.28 287.209 346.88 287.359 346.36H288.829C288.609 347.2 288.169 347.875 287.509 348.385C286.849 348.885 286.024 349.135 285.034 349.135C284.254 349.135 283.559 348.96 282.949 348.61C282.349 348.26 281.879 347.765 281.539 347.125C281.199 346.485 281.029 345.735 281.029 344.875ZM292.015 342.115C292.255 341.645 292.595 341.28 293.035 341.02C293.485 340.76 294.03 340.63 294.67 340.63V342.04H294.31C292.78 342.04 292.015 342.87 292.015 344.53V349H290.65V340.78H292.015V342.115ZM296.951 339.445C296.691 339.445 296.471 339.355 296.291 339.175C296.111 338.995 296.021 338.775 296.021 338.515C296.021 338.255 296.111 338.035 296.291 337.855C296.471 337.675 296.691 337.585 296.951 337.585C297.201 337.585 297.411 337.675 297.581 337.855C297.761 338.035 297.851 338.255 297.851 338.515C297.851 338.775 297.761 338.995 297.581 339.175C297.411 339.355 297.201 339.445 296.951 339.445ZM297.611 340.78V349H296.246V340.78H297.611ZM301.302 342.295C301.572 341.825 301.972 341.435 302.502 341.125C303.042 340.805 303.667 340.645 304.377 340.645C305.107 340.645 305.767 340.82 306.357 341.17C306.957 341.52 307.427 342.015 307.767 342.655C308.107 343.285 308.277 344.02 308.277 344.86C308.277 345.69 308.107 346.43 307.767 347.08C307.427 347.73 306.957 348.235 306.357 348.595C305.767 348.955 305.107 349.135 304.377 349.135C303.677 349.135 303.057 348.98 302.517 348.67C301.987 348.35 301.582 347.955 301.302 347.485V352.9H299.937V340.78H301.302V342.295ZM306.882 344.86C306.882 344.24 306.757 343.7 306.507 343.24C306.257 342.78 305.917 342.43 305.487 342.19C305.067 341.95 304.602 341.83 304.092 341.83C303.592 341.83 303.127 341.955 302.697 342.205C302.277 342.445 301.937 342.8 301.677 343.27C301.427 343.73 301.302 344.265 301.302 344.875C301.302 345.495 301.427 346.04 301.677 346.51C301.937 346.97 302.277 347.325 302.697 347.575C303.127 347.815 303.592 347.935 304.092 347.935C304.602 347.935 305.067 347.815 305.487 347.575C305.917 347.325 306.257 346.97 306.507 346.51C306.757 346.04 306.882 345.49 306.882 344.86ZM311.739 341.905V346.75C311.739 347.15 311.824 347.435 311.994 347.605C312.164 347.765 312.459 347.845 312.879 347.845H313.884V349H312.654C311.894 349 311.324 348.825 310.944 348.475C310.564 348.125 310.374 347.55 310.374 346.75V341.905H309.309V340.78H310.374V338.71H311.739V340.78H313.884V341.905H311.739ZM315.028 344.86C315.028 344.02 315.198 343.285 315.538 342.655C315.878 342.015 316.343 341.52 316.933 341.17C317.533 340.82 318.198 340.645 318.928 340.645C319.648 340.645 320.273 340.8 320.803 341.11C321.333 341.42 321.728 341.81 321.988 342.28V340.78H323.368V349H321.988V347.47C321.718 347.95 321.313 348.35 320.773 348.67C320.243 348.98 319.623 349.135 318.913 349.135C318.183 349.135 317.523 348.955 316.933 348.595C316.343 348.235 315.878 347.73 315.538 347.08C315.198 346.43 315.028 345.69 315.028 344.86ZM321.988 344.875C321.988 344.255 321.863 343.715 321.613 343.255C321.363 342.795 321.023 342.445 320.593 342.205C320.173 341.955 319.708 341.83 319.198 341.83C318.688 341.83 318.223 341.95 317.803 342.19C317.383 342.43 317.048 342.78 316.798 343.24C316.548 343.7 316.423 344.24 316.423 344.86C316.423 345.49 316.548 346.04 316.798 346.51C317.048 346.97 317.383 347.325 317.803 347.575C318.223 347.815 318.688 347.935 319.198 347.935C319.708 347.935 320.173 347.815 320.593 347.575C321.023 347.325 321.363 346.97 321.613 346.51C321.863 346.04 321.988 345.495 321.988 344.875ZM327.04 342.115C327.28 341.645 327.62 341.28 328.06 341.02C328.51 340.76 329.055 340.63 329.695 340.63V342.04H329.335C327.805 342.04 327.04 342.87 327.04 344.53V349H325.675V340.78H327.04V342.115ZM338.854 349.135C338.084 349.135 337.384 348.96 336.754 348.61C336.134 348.26 335.644 347.765 335.284 347.125C334.934 346.475 334.759 345.725 334.759 344.875C334.759 344.035 334.939 343.295 335.299 342.655C335.669 342.005 336.169 341.51 336.799 341.17C337.429 340.82 338.134 340.645 338.914 340.645C339.694 340.645 340.399 340.82 341.029 341.17C341.659 341.51 342.154 342 342.514 342.64C342.884 343.28 343.069 344.025 343.069 344.875C343.069 345.725 342.879 346.475 342.499 347.125C342.129 347.765 341.624 348.26 340.984 348.61C340.344 348.96 339.634 349.135 338.854 349.135ZM338.854 347.935C339.344 347.935 339.804 347.82 340.234 347.59C340.664 347.36 341.009 347.015 341.269 346.555C341.539 346.095 341.674 345.535 341.674 344.875C341.674 344.215 341.544 343.655 341.284 343.195C341.024 342.735 340.684 342.395 340.264 342.175C339.844 341.945 339.389 341.83 338.899 341.83C338.399 341.83 337.939 341.945 337.519 342.175C337.109 342.395 336.779 342.735 336.529 343.195C336.279 343.655 336.154 344.215 336.154 344.875C336.154 345.545 336.274 346.11 336.514 346.57C336.764 347.03 337.094 347.375 337.504 347.605C337.914 347.825 338.364 347.935 338.854 347.935ZM154.693 367.86C154.693 367.02 154.863 366.285 155.203 365.655C155.543 365.015 156.008 364.52 156.598 364.17C157.198 363.82 157.868 363.645 158.608 363.645C159.248 363.645 159.843 363.795 160.393 364.095C160.943 364.385 161.363 364.77 161.653 365.25V360.9H163.033V372H161.653V370.455C161.383 370.945 160.983 371.35 160.453 371.67C159.923 371.98 159.303 372.135 158.593 372.135C157.863 372.135 157.198 371.955 156.598 371.595C156.008 371.235 155.543 370.73 155.203 370.08C154.863 369.43 154.693 368.69 154.693 367.86ZM161.653 367.875C161.653 367.255 161.528 366.715 161.278 366.255C161.028 365.795 160.688 365.445 160.258 365.205C159.838 364.955 159.373 364.83 158.863 364.83C158.353 364.83 157.888 364.95 157.468 365.19C157.048 365.43 156.713 365.78 156.463 366.24C156.213 366.7 156.088 367.24 156.088 367.86C156.088 368.49 156.213 369.04 156.463 369.51C156.713 369.97 157.048 370.325 157.468 370.575C157.888 370.815 158.353 370.935 158.863 370.935C159.373 370.935 159.838 370.815 160.258 370.575C160.688 370.325 161.028 369.97 161.278 369.51C161.528 369.04 161.653 368.495 161.653 367.875ZM172.84 367.575C172.84 367.835 172.825 368.11 172.795 368.4H166.225C166.275 369.21 166.55 369.845 167.05 370.305C167.56 370.755 168.175 370.98 168.895 370.98C169.485 370.98 169.975 370.845 170.365 370.575C170.765 370.295 171.045 369.925 171.205 369.465H172.675C172.455 370.255 172.015 370.9 171.355 371.4C170.695 371.89 169.875 372.135 168.895 372.135C168.115 372.135 167.415 371.96 166.795 371.61C166.185 371.26 165.705 370.765 165.355 370.125C165.005 369.475 164.83 368.725 164.83 367.875C164.83 367.025 165 366.28 165.34 365.64C165.68 365 166.155 364.51 166.765 364.17C167.385 363.82 168.095 363.645 168.895 363.645C169.675 363.645 170.365 363.815 170.965 364.155C171.565 364.495 172.025 364.965 172.345 365.565C172.675 366.155 172.84 366.825 172.84 367.575ZM171.43 367.29C171.43 366.77 171.315 366.325 171.085 365.955C170.855 365.575 170.54 365.29 170.14 365.1C169.75 364.9 169.315 364.8 168.835 364.8C168.145 364.8 167.555 365.02 167.065 365.46C166.585 365.9 166.31 366.51 166.24 367.29H171.43ZM177.552 372.135C176.922 372.135 176.357 372.03 175.857 371.82C175.357 371.6 174.962 371.3 174.672 370.92C174.382 370.53 174.222 370.085 174.192 369.585H175.602C175.642 369.995 175.832 370.33 176.172 370.59C176.522 370.85 176.977 370.98 177.537 370.98C178.057 370.98 178.467 370.865 178.767 370.635C179.067 370.405 179.217 370.115 179.217 369.765C179.217 369.405 179.057 369.14 178.737 368.97C178.417 368.79 177.922 368.615 177.252 368.445C176.642 368.285 176.142 368.125 175.752 367.965C175.372 367.795 175.042 367.55 174.762 367.23C174.492 366.9 174.357 366.47 174.357 365.94C174.357 365.52 174.482 365.135 174.732 364.785C174.982 364.435 175.337 364.16 175.797 363.96C176.257 363.75 176.782 363.645 177.372 363.645C178.282 363.645 179.017 363.875 179.577 364.335C180.137 364.795 180.437 365.425 180.477 366.225H179.112C179.082 365.795 178.907 365.45 178.587 365.19C178.277 364.93 177.857 364.8 177.327 364.8C176.837 364.8 176.447 364.905 176.157 365.115C175.867 365.325 175.722 365.6 175.722 365.94C175.722 366.21 175.807 366.435 175.977 366.615C176.157 366.785 176.377 366.925 176.637 367.035C176.907 367.135 177.277 367.25 177.747 367.38C178.337 367.54 178.817 367.7 179.187 367.86C179.557 368.01 179.872 368.24 180.132 368.55C180.402 368.86 180.542 369.265 180.552 369.765C180.552 370.215 180.427 370.62 180.177 370.98C179.927 371.34 179.572 371.625 179.112 371.835C178.662 372.035 178.142 372.135 177.552 372.135ZM189.979 367.575C189.979 367.835 189.964 368.11 189.934 368.4H183.364C183.414 369.21 183.689 369.845 184.189 370.305C184.699 370.755 185.314 370.98 186.034 370.98C186.624 370.98 187.114 370.845 187.504 370.575C187.904 370.295 188.184 369.925 188.344 369.465H189.814C189.594 370.255 189.154 370.9 188.494 371.4C187.834 371.89 187.014 372.135 186.034 372.135C185.254 372.135 184.554 371.96 183.934 371.61C183.324 371.26 182.844 370.765 182.494 370.125C182.144 369.475 181.969 368.725 181.969 367.875C181.969 367.025 182.139 366.28 182.479 365.64C182.819 365 183.294 364.51 183.904 364.17C184.524 363.82 185.234 363.645 186.034 363.645C186.814 363.645 187.504 363.815 188.104 364.155C188.704 364.495 189.164 364.965 189.484 365.565C189.814 366.155 189.979 366.825 189.979 367.575ZM188.569 367.29C188.569 366.77 188.454 366.325 188.224 365.955C187.994 365.575 187.679 365.29 187.279 365.1C186.889 364.9 186.454 364.8 185.974 364.8C185.284 364.8 184.694 365.02 184.204 365.46C183.724 365.9 183.449 366.51 183.379 367.29H188.569ZM195.785 363.63C196.785 363.63 197.595 363.935 198.215 364.545C198.835 365.145 199.145 366.015 199.145 367.155V372H197.795V367.35C197.795 366.53 197.59 365.905 197.18 365.475C196.77 365.035 196.21 364.815 195.5 364.815C194.78 364.815 194.205 365.04 193.775 365.49C193.355 365.94 193.145 366.595 193.145 367.455V372H191.78V363.78H193.145V364.95C193.415 364.53 193.78 364.205 194.24 363.975C194.71 363.745 195.225 363.63 195.785 363.63ZM200.865 367.875C200.865 367.025 201.035 366.285 201.375 365.655C201.715 365.015 202.185 364.52 202.785 364.17C203.395 363.82 204.09 363.645 204.87 363.645C205.88 363.645 206.71 363.89 207.36 364.38C208.02 364.87 208.455 365.55 208.665 366.42H207.195C207.055 365.92 206.78 365.525 206.37 365.235C205.97 364.945 205.47 364.8 204.87 364.8C204.09 364.8 203.46 365.07 202.98 365.61C202.5 366.14 202.26 366.895 202.26 367.875C202.26 368.865 202.5 369.63 202.98 370.17C203.46 370.71 204.09 370.98 204.87 370.98C205.47 370.98 205.97 370.84 206.37 370.56C206.77 370.28 207.045 369.88 207.195 369.36H208.665C208.445 370.2 208.005 370.875 207.345 371.385C206.685 371.885 205.86 372.135 204.87 372.135C204.09 372.135 203.395 371.96 202.785 371.61C202.185 371.26 201.715 370.765 201.375 370.125C201.035 369.485 200.865 368.735 200.865 367.875ZM211.852 365.115C212.092 364.645 212.432 364.28 212.872 364.02C213.322 363.76 213.867 363.63 214.507 363.63V365.04H214.147C212.617 365.04 211.852 365.87 211.852 367.53V372H210.487V363.78H211.852V365.115ZM216.787 362.445C216.527 362.445 216.307 362.355 216.127 362.175C215.947 361.995 215.857 361.775 215.857 361.515C215.857 361.255 215.947 361.035 216.127 360.855C216.307 360.675 216.527 360.585 216.787 360.585C217.037 360.585 217.247 360.675 217.417 360.855C217.597 361.035 217.687 361.255 217.687 361.515C217.687 361.775 217.597 361.995 217.417 362.175C217.247 362.355 217.037 362.445 216.787 362.445ZM217.447 363.78V372H216.082V363.78H217.447ZM221.139 365.295C221.409 364.825 221.809 364.435 222.339 364.125C222.879 363.805 223.504 363.645 224.214 363.645C224.944 363.645 225.604 363.82 226.194 364.17C226.794 364.52 227.264 365.015 227.604 365.655C227.944 366.285 228.114 367.02 228.114 367.86C228.114 368.69 227.944 369.43 227.604 370.08C227.264 370.73 226.794 371.235 226.194 371.595C225.604 371.955 224.944 372.135 224.214 372.135C223.514 372.135 222.894 371.98 222.354 371.67C221.824 371.35 221.419 370.955 221.139 370.485V375.9H219.774V363.78H221.139V365.295ZM226.719 367.86C226.719 367.24 226.594 366.7 226.344 366.24C226.094 365.78 225.754 365.43 225.324 365.19C224.904 364.95 224.439 364.83 223.929 364.83C223.429 364.83 222.964 364.955 222.534 365.205C222.114 365.445 221.774 365.8 221.514 366.27C221.264 366.73 221.139 367.265 221.139 367.875C221.139 368.495 221.264 369.04 221.514 369.51C221.774 369.97 222.114 370.325 222.534 370.575C222.964 370.815 223.429 370.935 223.929 370.935C224.439 370.935 224.904 370.815 225.324 370.575C225.754 370.325 226.094 369.97 226.344 369.51C226.594 369.04 226.719 368.49 226.719 367.86ZM231.575 364.905V369.75C231.575 370.15 231.66 370.435 231.83 370.605C232 370.765 232.295 370.845 232.715 370.845H233.72V372H232.49C231.73 372 231.16 371.825 230.78 371.475C230.4 371.125 230.21 370.55 230.21 369.75V364.905H229.145V363.78H230.21V361.71H231.575V363.78H233.72V364.905H231.575ZM234.864 367.86C234.864 367.02 235.034 366.285 235.374 365.655C235.714 365.015 236.179 364.52 236.769 364.17C237.369 363.82 238.034 363.645 238.764 363.645C239.484 363.645 240.109 363.8 240.639 364.11C241.169 364.42 241.564 364.81 241.824 365.28V363.78H243.204V372H241.824V370.47C241.554 370.95 241.149 371.35 240.609 371.67C240.079 371.98 239.459 372.135 238.749 372.135C238.019 372.135 237.359 371.955 236.769 371.595C236.179 371.235 235.714 370.73 235.374 370.08C235.034 369.43 234.864 368.69 234.864 367.86ZM241.824 367.875C241.824 367.255 241.699 366.715 241.449 366.255C241.199 365.795 240.859 365.445 240.429 365.205C240.009 364.955 239.544 364.83 239.034 364.83C238.524 364.83 238.059 364.95 237.639 365.19C237.219 365.43 236.884 365.78 236.634 366.24C236.384 366.7 236.259 367.24 236.259 367.86C236.259 368.49 236.384 369.04 236.634 369.51C236.884 369.97 237.219 370.325 237.639 370.575C238.059 370.815 238.524 370.935 239.034 370.935C239.544 370.935 240.009 370.815 240.429 370.575C240.859 370.325 241.199 369.97 241.449 369.51C241.699 369.04 241.824 368.495 241.824 367.875ZM246.876 365.115C247.116 364.645 247.456 364.28 247.896 364.02C248.346 363.76 248.891 363.63 249.531 363.63V365.04H249.171C247.641 365.04 246.876 365.87 246.876 367.53V372H245.511V363.78H246.876V365.115Z" fill="#595959" fill-opacity="0.8"/>
</svg>
